<svg xmlns="http://www.w3.org/2000/svg"
shape-rendering="geometricPrecision"
width="4000" height="4000" viewBox="0 0 1024 1024">
  <metadata>null</metadata>

<path d="
M 53.422 416.562
C 54.683 413.565 57.248 413.375 60.125 413.345
C 64.085 413.304 68.045 413.295 72.005 413.276
C 90.838 413.184 109.673 413.261 128.506 413.247
C 153.339 413.229 178.173 413.31 203.006 413.213
C 208.907 413.19 214.809 413.239 220.71 413.182
C 223.216 413.158 226.257 412.66 228 414.879
C 228.847 415.957 228.79 417.283 228.798 418.582
C 228.813 420.889 228.838 423.195 228.845 425.501
C 228.87 434.833 228.812 444.166 228.815 453.498
C 228.823 489.5 228.865 525.503 228.922 561.506
C 228.939 572.135 229.13 582.753 229.1 593.378
C 229.092 596.362 230.299 602.554 226.644 603.98
C 222.014 604.862 216.702 604.214 211.996 604.21
C 202.663 604.204 193.329 604.224 183.996 604.215
C 154.996 604.186 125.996 604.226 96.996 604.212
C 86.663 604.207 76.33 604.231 65.997 604.238
C 63 604.24 57.099 605.362 54.752 603.129
C 52.082 600.588 53.322 594.371 53.319 591
C 53.309 579.833 53.305 568.666 53.309 557.5
C 53.321 525.666 53.335 493.833 53.335 461.999
C 53.335 451.833 53.33 441.666 53.325 431.499
C 53.323 426.742 52.507 421.23 53.422 416.562 Z
M 62.441 423.628
C 61.888 431.846 62.439 440.271 62.413 448.511
C 62.355 466.344 62.356 484.177 62.369 502.01
C 62.384 522.51 62.372 543.011 62.369 563.511
C 62.368 573.997 61.967 584.566 62.422 595.041
C 64.473 595.481 66.913 595.139 69.008 595.128
C 73.508 595.105 78.009 595.106 82.509 595.115
C 96.676 595.142 110.842 595.135 125.009 595.125
C 146.341 595.109 167.673 595.062 189.005 595.077
C 195.673 595.082 202.34 595.118 209.008 595.143
C 212.399 595.155 216.253 595.665 219.58 595.004
C 220.067 594.402 219.767 592.763 219.773 592.002
C 219.793 589.169 219.785 586.335 219.784 583.502
C 219.779 572.335 219.806 561.169 219.782 550.002
C 219.72 521.836 219.757 493.67 219.753 465.503
C 219.752 456.003 219.774 446.503 219.77 437.002
C 219.767 432.232 219.351 427.246 219.794 422.505
C 207.065 421.967 194.248 422.309 181.499 422.3
C 158.499 422.283 135.499 422.313 112.498 422.319
C 101.165 422.322 89.832 422.325 78.499 422.318
C 75 422.316 71.5 422.295 68 422.312
C 66.241 422.32 64.25 422.058 62.548 422.548
C 62.495 423.354 62.538 422.995 62.441 423.628 Z"
opacity="1" fill="rgb(44,51,72)" fill-rule="evenodd" />
<path d="
M 83.413 449.59
C 84.252 444.964 90.655 446.246 94.002 446.249
C 103.169 446.258 112.337 446.235 121.504 446.191
C 124.779 446.175 130.058 445.113 132.871 447.106
C 136.133 449.419 134.728 456.008 134.726 459.5
C 134.721 468.499 134.68 477.498 134.667 486.497
C 134.663 489.164 134.682 491.831 134.679 494.498
C 134.677 495.92 134.89 497.56 134.472 498.94
C 133.268 502.918 126.505 501.725 123.498 501.72
C 114.165 501.704 104.831 501.701 95.498 501.708
C 92.589 501.709 87.212 502.765 84.98 500.585
C 82.079 497.754 83.361 491.166 83.361 487.44
C 83.363 478.792 83.363 470.144 83.38 461.496
C 83.388 457.721 82.739 453.298 83.413 449.59 Z
M 92.495 456.633
C 92.067 462.854 92.627 469.259 92.636 475.499
C 92.644 481.068 92.058 486.928 92.715 492.46
C 100.863 492.695 109.071 492.316 117.238 492.487
C 119.249 492.529 121.263 492.525 123.272 492.602
C 123.693 492.618 125.092 492.885 125.401 492.556
C 125.086 489.445 125.379 486.13 125.392 482.996
C 125.432 473.898 125.98 464.574 125.279 455.503
C 118.887 455.12 112.4 455.391 105.998 455.408
C 101.799 455.418 97.368 455.009 93.202 455.562
C 92.49 456.286 92.664 455.895 92.495 456.633 Z"
opacity="1" fill="rgb(63,155,155)" fill-rule="evenodd" />
<path d="
M 83.397 518.591
C 84.336 513.856 89.343 514.777 93.001 514.777
C 103.168 514.777 113.335 514.725 123.501 514.757
C 126.826 514.768 132.784 513.633 134.549 517.469
C 135.13 529.596 134.632 541.855 134.641 553.997
C 134.644 557.33 134.655 560.663 134.629 563.995
C 134.619 565.283 134.895 567.088 134.172 568.241
C 132 571.704 126.425 570.346 122.999 570.329
C 113.526 570.281 104.051 570.306 94.578 570.299
C 91.4 570.296 86.192 571.379 84.052 568.417
C 83.164 567.187 83.384 565.435 83.363 563.997
C 83.317 560.998 83.334 557.997 83.336 554.997
C 83.343 542.901 82.802 530.671 83.397 518.591 Z
M 92.456 525.129
C 91.575 533.055 92.47 541.522 92.445 549.504
C 92.434 552.931 91.546 557.798 92.73 561.021
C 103.591 561.397 114.829 560.095 125.639 561.288
C 124.824 557.109 125.536 552.147 125.537 547.89
C 125.538 540.093 125.167 532.222 125.475 524.437
C 125.062 523.744 124.249 523.946 123.5 523.93
C 121.5 523.886 119.499 523.893 117.498 523.875
C 111.832 523.823 106.165 523.837 100.498 523.861
C 98.054 523.871 94.91 523.387 92.565 524.072
C 92.517 524.858 92.562 524.507 92.456 525.129 Z"
opacity="1" fill="rgb(62,155,154)" fill-rule="evenodd" />
<path d="
M 147.363 449.55
C 148.687 445.09 154.472 446.265 158.002 446.261
C 167.336 446.252 176.669 446.269 186.002 446.253
C 189.082 446.248 194.246 445.231 196.855 447.132
C 200.19 449.561 198.772 455.866 198.757 459.5
C 198.718 468.499 198.687 477.501 198.718 486.501
C 198.727 489.168 198.75 491.834 198.75 494.501
C 198.75 495.93 198.976 497.584 198.516 498.959
C 197.188 502.927 190.627 501.753 187.499 501.731
C 178.166 501.665 168.832 501.711 159.499 501.702
C 156.456 501.699 151.16 502.738 148.741 500.575
C 145.915 498.048 147.235 491.432 147.234 487.999
C 147.232 479.166 147.226 470.332 147.235 461.499
C 147.238 458.832 147.231 456.166 147.232 453.499
C 147.233 452.261 147.007 450.75 147.363 449.55 Z
M 156.451 455.879
C 156.2 464.247 156.366 472.632 156.397 481.004
C 156.406 483.408 156.416 485.812 156.436 488.217
C 156.447 489.613 156.245 491.2 156.744 492.528
C 167.582 491.962 178.498 492.811 189.352 492.672
C 189.675 491.405 189.42 489.797 189.417 488.494
C 189.41 485.995 189.437 483.496 189.441 480.998
C 189.455 472.501 189.509 463.998 189.42 455.505
C 187.087 454.89 183.921 455.417 181.498 455.423
C 175.905 455.437 170.312 455.547 164.719 455.526
C 162.822 455.519 160.94 455.576 159.043 455.581
C 158.248 455.584 157.106 455.416 156.451 455.879 Z"
opacity="1" fill="rgb(63,155,154)" fill-rule="evenodd" />
<path d="
M 147.341 518.047
C 148.651 513.556 154.488 514.768 158 514.763
C 167.336 514.749 176.672 514.612 186.006 514.596
C 188.981 514.591 193.977 513.574 196.493 515.389
C 200.1 517.991 198.727 524.063 198.71 527.998
C 198.673 537 198.682 546 198.722 555.001
C 198.733 557.668 198.737 560.334 198.735 563.001
C 198.734 564.432 198.98 566.07 198.496 567.444
C 197.013 571.657 190.908 570.258 187.5 570.254
C 178.166 570.245 168.831 570.27 159.497 570.327
C 156.368 570.346 150.998 571.443 148.477 569.237
C 147.193 568.113 147.2 566.543 147.203 564.966
C 147.207 562.31 147.191 559.655 147.197 556.999
C 147.216 548.166 147.22 539.332 147.22 530.499
C 147.22 527.666 147.212 524.832 147.227 521.998
C 147.234 520.777 146.997 519.226 147.341 518.047 Z
M 156.453 524.515
C 156.052 529.29 156.377 534.209 156.377 539.003
C 156.377 546.321 156.216 553.662 156.428 560.977
C 164.142 560.658 171.913 561.04 179.635 561.065
C 182.656 561.075 186.492 561.742 189.413 560.967
C 189.906 548.764 189.77 536.281 189.434 524.074
C 185.667 523.344 181.34 523.897 177.499 523.824
C 170.767 523.695 163.32 523.014 156.662 524.073
C 156.592 524.22 156.523 524.368 156.453 524.515 Z"
opacity="1" fill="rgb(63,155,155)" fill-rule="evenodd" />
<path d="
M 276.979 442.106
C 277.428 437.65 281.154 437.791 284.683 437.759
C 292.62 437.687 300.564 437.788 308.501 437.79
C 323.612 437.794 339.304 436.153 352.941 443.914
C 373.04 455.353 374.049 485.182 358.341 500.616
C 358.646 501.517 360.882 502.341 361.666 502.97
C 364.193 504.995 366.47 507.341 368.302 510.015
C 376.244 521.61 376.884 536.72 370.646 549.253
C 369.385 551.785 367.809 554.165 365.975 556.317
C 363.837 558.827 361.379 561.168 358.632 563.006
C 348.921 569.501 337.166 569.099 326.005 569.041
C 318.504 569.003 311.003 569.039 303.503 569.068
C 297.502 569.091 291.5 569.03 285.5 569.09
C 283.265 569.112 279.982 569.734 278.391 567.829
C 276.333 565.367 277.067 561.398 277.069 558.419
C 277.073 550.625 277.059 542.832 277.047 535.038
C 277.017 514.363 276.957 493.677 276.944 472.996
C 276.937 462.737 276.503 452.35 276.979 442.106 Z
M 296.011 457.121
C 295.674 460.199 295.933 463.412 295.928 466.507
C 295.917 472.507 295.934 478.507 295.946 484.507
C 295.95 486.675 295.948 488.843 295.96 491.01
C 295.965 491.767 295.757 493.025 296.412 493.457
C 299.859 493.09 303.531 493.41 307.005 493.408
C 313.339 493.404 319.672 493.342 326.006 493.356
C 332.254 493.369 338.42 493.774 343.684 489.751
C 353.487 482.259 352.649 466.194 342.97 459.176
C 338.155 455.685 332.539 455.659 326.833 455.654
C 320.554 455.648 314.274 455.693 307.995 455.713
C 305.162 455.722 302.329 455.719 299.496 455.744
C 298.411 455.754 296.977 455.549 296.024 456.103
C 296.063 456.885 296.085 456.546 296.011 457.121 Z
M 295.868 511.77
C 295.973 520.512 295.893 529.262 295.93 538.006
C 295.948 542.229 296.316 546.554 296.125 550.762
C 306.75 550.614 317.378 550.725 328.004 550.74
C 335.379 550.751 342.22 551.361 348.618 547.008
C 359.535 539.58 359.016 520.428 347.434 513.884
C 342.555 511.127 337.41 511.423 332.006 511.426
C 324.839 511.43 317.673 511.456 310.506 511.455
C 306.831 511.454 303.165 511.397 299.496 511.531
C 298.273 511.576 297.053 511.437 295.868 511.77 Z"
opacity="1" fill="rgb(43,50,73)" fill-rule="evenodd" />
<path d="
M 388.374 440.571
C 388.687 439.353 389.791 437.806 391.062 437.43
C 392.237 437.082 393.786 437.366 395.005 437.347
C 397.64 437.306 400.359 437.09 402.987 437.274
C 404.261 437.363 406.504 438.706 406.807 440.057
C 407.432 442.852 406.772 446.267 406.763 449.122
C 406.745 455.249 406.814 461.376 406.787 467.502
C 406.702 486.837 406.754 506.168 406.759 525.503
C 406.76 531.336 406.727 537.17 406.74 543.003
C 406.746 545.871 406.616 549.042 408.817 551.251
C 410.818 553.259 413.999 553.033 416.617 553.13
C 417.426 554.022 417.394 555.236 417.52 556.371
C 417.836 559.22 417.682 562.264 417.463 565.119
C 417.361 566.455 417.173 567.743 415.951 568.527
C 413.603 570.034 410.168 569.81 407.501 569.735
C 399.26 569.504 392.242 566.584 389.608 558.159
C 388.02 553.079 388.405 547.113 388.415 541.84
C 388.431 533.726 388.418 525.611 388.411 517.497
C 388.397 500.664 388.443 483.83 388.403 466.998
C 388.382 458.32 387.54 449.204 388.374 440.571 Z"
opacity="1" fill="rgb(44,51,73)" fill-rule="evenodd" />
<path d="
M 421.41 517.103
C 422.008 511.631 423.915 506.193 426.309 501.267
C 428.787 496.167 432.434 491.582 436.611 487.766
C 455.506 470.506 484.818 471.926 502.662 489.934
C 507.726 495.043 511.266 501.745 513.477 508.525
C 515.523 514.797 516.321 521.367 515.556 527.941
C 512.505 554.159 488.333 573.517 462.18 570.268
C 456.186 569.523 450.695 567.476 445.396 564.62
C 440.258 561.85 435.884 558.089 432.147 553.618
C 428.296 549.009 425.198 543.669 423.381 537.94
C 421.254 531.239 420.645 524.085 421.41 517.103 Z
M 439.942 520.118
C 439.556 524.149 440.223 528.395 441.46 532.244
C 443.1 537.349 445.905 542.205 449.948 545.795
C 452.076 547.685 454.593 549.168 457.18 550.336
C 474.794 558.295 494.925 544.653 496.728 526.141
C 497.186 521.44 496.78 516.63 495.179 512.166
C 493.816 508.368 491.558 504.429 488.767 501.502
C 478.153 490.371 460.065 491.037 448.988 500.942
C 443.882 505.509 440.582 513.425 439.942 520.118 Z"
opacity="1" fill="rgb(41,49,72)" fill-rule="evenodd" />
<path d="
M 524.929 515.602
C 526.409 506.71 529.459 497.807 535.672 491.024
C 552.351 472.815 582.603 469.889 601.432 486.866
C 602.578 487.899 604.185 489.421 604.393 491.042
C 604.577 492.471 603.519 493.642 602.756 494.726
C 601.248 496.869 599.645 498.911 597.795 500.773
C 597.015 501.558 596.132 502.632 595.039 502.945
C 593.533 502.832 592.193 501.684 590.982 500.869
C 588.839 499.428 586.695 497.974 584.416 496.749
C 577.549 493.056 569.043 492.185 561.605 494.529
C 538.311 501.874 536.222 538.165 557.31 549.458
C 565.74 553.972 576.508 553.608 584.755 548.956
C 587.165 547.596 589.419 546.014 591.669 544.407
C 592.84 543.571 594.069 542.428 595.502 542.141
C 597.436 542.79 599.023 544.521 600.396 545.964
C 602.281 547.945 605.351 550.743 605.664 553.638
C 605.877 555.601 603.904 557.362 602.609 558.552
C 599.056 561.818 594.234 564.772 589.81 566.695
C 571.192 574.784 547.009 569.975 534.451 553.451
C 526.346 542.787 523.405 528.753 524.929 515.602 Z"
opacity="1" fill="rgb(42,49,73)" fill-rule="evenodd" />
<path d="
M 616.872 440.57
C 618.23 436.084 624.198 437.239 627.828 437.196
C 629.238 437.179 630.912 437 632.294 437.313
C 633.497 437.585 635.086 439.278 635.229 440.536
C 635.853 446.047 635.277 451.953 635.268 457.499
C 635.247 470.999 635.188 484.5 635.218 498.001
C 635.231 504.139 634.6 510.661 635.22 516.757
C 635.974 516.598 636.938 514.958 637.564 514.425
C 640.105 512.261 642.254 509.483 644.577 507.078
C 653.681 497.651 662.535 487.936 671.243 478.152
C 673.177 475.98 675.298 476.271 678.007 476.296
C 681.778 476.33 685.55 476.228 689.321 476.28
C 691.219 476.307 693.394 477.845 692.657 479.906
C 690.534 483.708 687.286 486.756 684.329 489.908
C 678.946 495.646 673.438 501.261 668.077 507.022
C 666.285 508.947 664.455 510.836 662.659 512.755
C 661.853 513.616 660.835 514.391 660.354 515.484
C 661.615 520.353 666.399 524.747 669.389 528.703
C 675.678 537.023 681.631 545.606 687.969 553.887
C 688.733 554.886 689.418 555.95 690.157 556.969
C 692.282 559.897 697.631 564.529 694.14 568.195
C 693.077 569.246 691.295 569.113 689.896 569.094
C 686.967 569.053 684.038 569.105 681.109 569.128
C 679.232 569.142 677.668 569.527 676.136 568.209
C 674.519 566.818 673.521 564.828 672.364 563.071
C 670.881 560.821 669.194 558.727 667.645 556.526
C 661.184 547.349 654.882 537.549 647.448 529.15
C 646.003 530.05 644.796 531.864 643.59 533.086
C 640.908 535.803 636.994 538.987 635.201 542.363
C 635.148 548.816 635.112 555.287 635.233 561.74
C 635.276 564.025 635.305 567.611 632.911 568.877
C 629.285 569.611 625.126 569.406 621.444 569.202
C 619.646 569.102 617.776 568.551 617.043 566.685
C 615.837 563.612 616.707 558.762 616.707 555.501
C 616.707 547.336 616.749 539.17 616.685 531.005
C 616.532 511.339 616.748 491.673 616.661 472.006
C 616.631 465.171 616.699 458.337 616.713 451.502
C 616.72 447.933 616.244 444.094 616.872 440.57 Z"
opacity="1" fill="rgb(42,49,73)" fill-rule="evenodd" />
<path d="
M 699.38 480.05
C 699.812 478.916 700.422 477.602 701.538 476.991
C 702.564 476.429 703.725 476.604 704.838 476.494
C 707.965 476.184 711.19 476.347 714.331 476.31
C 714.151 471.226 714.305 466.098 714.237 461.005
C 714.209 458.939 713.674 455.781 714.645 453.885
C 715.172 452.855 716.344 451.995 717.462 451.746
C 718.7 451.47 720.123 451.726 721.387 451.719
C 724.656 451.701 730.168 450.503 732.305 453.518
C 733.522 455.235 732.842 458.011 732.864 460.005
C 732.904 463.506 732.915 467.008 732.92 470.51
C 732.923 472.436 732.741 474.621 733.281 476.485
C 737.469 476.299 741.678 476.716 745.877 476.512
C 747.97 476.41 751.125 475.968 753.05 476.941
C 754.814 477.832 755.127 479.643 755.156 481.411
C 755.205 484.347 755.246 487.286 755.027 490.217
C 754.907 491.818 755.034 493.53 753.539 494.52
C 751.921 495.591 749.337 495.067 747.507 495.056
C 742.586 495.029 737.667 495.178 732.752 495.094
C 733.407 506.636 732.916 518.441 732.861 530.006
C 732.846 533.254 732.82 536.502 732.817 539.75
C 732.814 541.82 732.654 544.031 733.342 546.016
C 733.724 547.117 734.249 548.105 734.921 549.054
C 737.901 553.255 743.279 552.548 747.761 552.234
C 749.115 552.14 750.986 551.736 752.286 552.236
C 753.49 552.699 754.208 554.09 754.317 555.3
C 754.616 558.601 754.67 563.026 753.956 566.266
C 753.056 570.359 747.115 569.684 743.945 569.704
C 734.265 569.767 724.654 568.546 718.992 559.689
C 714.14 552.1 714.681 543.552 714.72 534.921
C 714.759 526.449 714.767 517.976 714.755 509.503
C 714.749 504.786 714.988 499.992 714.611 495.289
C 711.704 494.921 708.681 494.926 705.752 494.866
C 704.265 494.836 702.305 495.076 700.97 494.303
C 699.648 493.537 699.317 492.043 699.247 490.635
C 699.084 487.341 698.64 483.269 699.38 480.05 Z"
opacity="1" fill="rgb(42,50,73)" fill-rule="evenodd" />
<path d="
M 762.455 536.597
C 763.185 533.124 763.924 529.718 765.703 526.587
C 770.317 518.468 778.419 513.318 787.529 511.683
C 793.219 510.662 799.29 510.934 805.054 510.886
C 811.979 510.829 818.906 510.783 825.829 510.723
C 826.258 508.774 825.846 506.289 825.371 504.381
C 822.142 491.383 805.792 491.14 795.267 493.559
C 793.145 494.047 791.06 494.661 789.019 495.417
C 786.439 496.374 783.896 497.513 781.423 498.72
C 779.732 499.546 778.474 500.653 776.524 500.808
C 771.907 501.175 770.497 494.759 769.799 491.217
C 769.496 489.679 768.761 487.766 769.864 486.42
C 771.684 484.197 774.533 482.822 777.066 481.605
C 782.828 478.836 788.965 476.971 795.285 476.031
C 814.148 473.223 837.492 479.219 843.377 499.778
C 844.819 504.817 844.477 510.45 844.471 515.635
C 844.462 522.84 844.59 530.038 844.567 537.24
C 844.547 543.827 844.551 550.416 844.652 557.003
C 844.697 559.948 845.405 564.144 844.361 566.929
C 843.892 568.178 842.739 569.062 841.431 569.217
C 838.513 569.563 835.435 569.254 832.497 569.271
C 830.409 569.283 828.127 569.432 826.42 568.002
C 825.532 566.465 825.991 563.305 825.911 561.508
C 825.886 560.955 826.068 560.063 825.743 559.614
C 821.926 562.469 817.939 565.1 813.552 567.005
C 798.817 573.404 774.863 573.189 766.217 557.28
C 764.705 554.497 763.541 551.59 762.86 548.494
C 761.996 544.569 761.893 540.578 762.455 536.597 Z
M 779.933 538.093
C 778.625 546.671 784.462 552.345 792.563 553.334
C 802.391 554.533 815.619 551.99 821.642 543.33
C 824.021 539.91 825.402 536.136 825.814 531.987
C 825.935 530.773 826.394 528.722 825.703 527.659
C 820.942 526.539 815.362 527.256 810.499 527.313
C 804.995 527.377 799.466 527.146 793.977 527.56
C 790.214 527.843 786.213 528.587 783.425 531.372
C 781.536 533.259 780.686 535.607 779.933 538.093 Z"
opacity="1" fill="rgb(42,50,73)" fill-rule="evenodd" />
<path d="
M 859.966 441.607
C 860.738 435.868 868.27 437.437 872.492 437.421
C 874.531 437.413 877.555 437.637 878.197 440.148
C 878.832 442.628 878.281 445.943 878.279 448.502
C 878.274 454.169 878.307 459.836 878.309 465.502
C 878.318 484.001 878.342 502.502 878.288 521.001
C 878.267 528.168 878.238 535.335 878.24 542.502
C 878.24 545.424 877.685 548.991 879.949 551.283
C 882.177 553.54 885.424 552.193 888.056 553.24
C 890.12 556.181 889.497 560.074 889.338 563.505
C 889.239 565.639 889.225 567.448 887.219 568.684
C 884.912 570.107 881.58 569.667 878.998 569.694
C 871.029 569.777 863.727 568.267 861.067 559.721
C 859.57 554.911 860.092 549.47 860.08 544.497
C 860.059 535.998 860.08 527.499 860.105 519.001
C 860.157 501.331 860.083 483.664 860.07 465.995
C 860.064 457.927 859.452 449.651 859.966 441.607 Z"
opacity="1" fill="rgb(43,50,72)" fill-rule="evenodd" />
<path d="
M 900.38 440.032
C 900.976 439.006 901.942 437.941 903.102 437.556
C 904.283 437.164 905.776 437.405 907.007 437.395
C 910.368 437.367 916.634 436.126 918.398 440.011
C 918.757 457.991 918.443 476.024 918.454 494.01
C 918.457 499.009 918.475 504.012 918.428 509.012
C 918.403 511.666 918.102 514.394 918.385 517.04
C 919.312 516.536 920.005 515.435 920.768 514.701
C 923.181 512.38 925.42 509.847 927.678 507.375
C 934.328 500.096 941.004 492.851 947.638 485.563
C 949.603 483.404 951.487 481.175 953.508 479.067
C 954.409 478.128 955.374 476.95 956.611 476.454
C 958.013 475.892 960.011 476.239 961.506 476.214
C 965.43 476.149 970.225 475.498 974.054 476.317
C 974.891 476.877 975.779 477.717 976.164 478.669
C 976.336 479.65 974.884 480.781 974.309 481.48
C 972.25 483.985 970.208 486.466 968.072 488.907
C 962.464 495.316 956.489 501.458 950.697 507.707
C 948.374 510.214 944.863 512.893 943.406 516.009
C 943.647 517.517 944.891 518.998 945.772 520.2
C 947.484 522.538 949.413 524.709 951.118 527.052
C 957.487 535.803 963.72 544.654 970.226 553.308
C 972.211 555.949 974.192 558.6 976.069 561.319
C 976.922 562.554 978.088 564.034 978.299 565.568
C 978.513 567.132 976.736 568.826 975.285 569.06
C 971.29 569.703 966.708 569.212 962.669 569.102
C 961.022 569.057 959.275 569.138 958.065 567.858
C 955.816 565.479 954.105 562.4 952.221 559.727
C 947.572 553.133 942.743 546.685 937.976 540.18
C 936.25 537.824 934.545 535.447 932.909 533.027
C 932.25 532.053 931.187 530.218 930.032 529.836
C 926.689 534.313 921.806 537.552 918.52 542.091
C 918.095 543.931 918.418 546.121 918.415 548.01
C 918.407 552.343 918.447 556.676 918.459 561.009
C 918.468 564.013 918.961 567.059 916.208 569.039
C 914.845 569.584 912.947 569.301 911.498 569.302
C 907.984 569.303 901.573 570.791 900.263 566.402
C 899.542 563.987 900.185 560.537 900.17 558.007
C 900.132 551.506 900.124 545.006 900.117 538.505
C 900.097 517.669 900.021 496.833 900.077 475.997
C 900.099 467.999 900.139 460.003 900.107 452.005
C 900.093 448.283 899.265 443.61 900.38 440.032 Z"
opacity="1" fill="rgb(42,49,72)" fill-rule="evenodd" />

</svg>