<?xml version="1.0" standalone="no"?>
<!DOCTYPE svg PUBLIC "-//W3C//DTD SVG 1.1//EN" "http://www.w3.org/Graphics/SVG/1.1/DTD/svg11.dtd">
<svg version="1.1" xmlns="http://www.w3.org/2000/svg" viewBox="0 0 756.8294270833339 585.8584611631454" width="756.8294270833339" height="585.8584611631454"><!-- svg-source:excalidraw --><metadata></metadata><defs><style class="style-fonts">
      </style></defs><g stroke-linecap="round" transform="translate(426.511267231709 528.1154276615877) rotate(0 62.78916347483681 16.74615608934431)"><path d="M8.37 0 C47.03 -5.3, 93.22 -4.21, 117.21 0 C119.93 -3.92, 129.29 6.11, 125.58 8.37 C121.68 8.06, 127.75 19.1, 125.58 25.12 C124.6 34.51, 126.28 29.1, 117.21 33.49 C86.12 28.35, 59.12 36.33, 8.37 33.49 C1.29 28.79, -4.16 33.97, 0 25.12 C0.43 24.6, -3.2 19.81, 0 8.37 C1.42 4.92, 2.23 4.18, 8.37 0" stroke="none" stroke-width="0" fill="#ffffff"></path><path d="M8.37 0 C43.69 -1.72, 89.27 -4.19, 117.21 0 M8.37 0 C45.63 1.99, 86.9 0.99, 117.21 0 M117.21 0 C119.26 1.38, 129.23 -0.03, 125.58 8.37 M117.21 0 C121.81 -3.44, 124.51 6.24, 125.58 8.37 M125.58 8.37 C123.76 14.43, 125.51 15.29, 125.58 25.12 M125.58 8.37 C126.21 14.59, 126.67 18.39, 125.58 25.12 M125.58 25.12 C129.01 29.23, 121.69 37.33, 117.21 33.49 M125.58 25.12 C129.8 27.95, 127.15 31.83, 117.21 33.49 M117.21 33.49 C87.75 34.25, 66.15 33.52, 8.37 33.49 M117.21 33.49 C91.57 32.07, 68.68 33.64, 8.37 33.49 M8.37 33.49 C-0.05 32.89, 3.79 27.2, 0 25.12 M8.37 33.49 C5.88 33.5, -1.37 26.37, 0 25.12 M0 25.12 C-1.93 19.55, 2.36 19.09, 0 8.37 M0 25.12 C-1.61 19.67, -0.96 16.22, 0 8.37 M0 8.37 C-1.43 2.93, 6.67 -2.87, 8.37 0 M0 8.37 C-2.98 3.95, -1.8 -3.81, 8.37 0" stroke="#1e1e1e" stroke-width="4" fill="none"></path></g><g stroke-linecap="round"><g transform="translate(469.0581025492562 528.8960642520365) rotate(0 0.4916606455483077 -164.37281875151325)"><path d="M-0.91 2.08 C-1.47 -51.94, -2.5 -271.21, -2.82 -326.66 M3.79 0.74 C4.01 -53.87, 2.36 -275.9, 2.14 -330.82" stroke="#1e1e1e" stroke-width="4" fill="none"></path></g></g><mask></mask><g stroke-linecap="round"><g transform="translate(510.5503424313863 527.765089953698) rotate(0 -0.41552245678656163 -164.52339351008757)"><path d="M-2.65 1.56 C-2.97 -53.89, -2.93 -275.68, -2.86 -330.61 M1.11 -0.06 C1.7 -55.43, 1.69 -274.15, 2.08 -328.28" stroke="#1e1e1e" stroke-width="4" fill="none"></path></g></g><mask></mask><g stroke-linecap="round"><g transform="translate(510.0975582910303 217.42706874357737) rotate(0 -20.037279435322347 10.14286937178339)"><path d="M-2.69 -2.39 C-9.1 0.51, -35.32 15.62, -41.13 18.94 M1.05 2.49 C-4.24 5.74, -29.24 19.75, -35.84 22.67" stroke="#1e1e1e" stroke-width="4" fill="none"></path></g></g><mask></mask><g stroke-linecap="round"><g transform="translate(508.57426375244745 252.13593128234623) rotate(0 -18.472350366563262 9.16665101045038)"><path d="M-2.06 0.19 C-7.87 3.51, -30.97 14.29, -37.55 17.54 M2.02 -2.18 C-3.78 1.73, -32.62 17.7, -38.96 20.51" stroke="#1e1e1e" stroke-width="4" fill="none"></path></g></g><mask></mask><g stroke-linecap="round"><g transform="translate(512.1752417205912 290.6306748987242) rotate(0 -20.010517622829155 9.255023800220783)"><path d="M1.52 -1.21 C-5.06 2.04, -35.2 16.72, -41.54 19.72 M-1.1 4.3 C-6.65 6.67, -30.51 12.82, -36.48 15.24" stroke="#1e1e1e" stroke-width="4" fill="none"></path></g></g><mask></mask><g stroke-linecap="round"><g transform="translate(511.6361441639779 338.46468238655996) rotate(0 -17.98710965916581 9.18083779328731)"><path d="M-2.47 0.97 C-8.81 3.97, -30.31 14.16, -36.51 16.78 M1.38 -0.98 C-5.23 2.44, -30.16 16.07, -37.36 19.34" stroke="#1e1e1e" stroke-width="4" fill="none"></path></g></g><mask></mask><g stroke-linecap="round"><g transform="translate(506.1771513602022 339.53604977126173) rotate(0 -19.833179382011963 8.589246286761437)"><path d="M2.56 -1.97 C-3.64 0.64, -32.62 12.86, -39.66 16.66 M0.5 3.12 C-5.9 5.95, -35.16 16.93, -42.23 19.15" stroke="#1e1e1e" stroke-width="4" fill="none"></path></g></g><mask></mask><g stroke-linecap="round"><g transform="translate(509.50071396650776 383.90723340915685) rotate(0 -19.015477350205828 9.381449257221504)"><path d="M-0.6 -2.09 C-7.64 1.71, -32.99 17.49, -39.71 20.86 M4.27 2.94 C-3.44 6.16, -35.73 14, -42.3 16.99" stroke="#1e1e1e" stroke-width="4" fill="none"></path></g></g><mask></mask><g stroke-linecap="round"><g transform="translate(508.8883410138495 437.97632545916895) rotate(0 -18.384586812183926 11.080104417738)"><path d="M-0.65 2.1 C-7.38 5.47, -34.37 15.57, -40.96 18.11 M4.19 0.77 C-1.58 4.75, -27.79 18.24, -35.59 21.39" stroke="#1e1e1e" stroke-width="4" fill="none"></path></g></g><mask></mask><g stroke-linecap="round"><g transform="translate(510.5893769934547 478.51438327473096) rotate(0 -20.401515939683378 8.335270929273634)"><path d="M-1.9 -0.65 C-8.49 1.89, -34.32 14.06, -40.21 17.3 M2.27 -3.47 C-4.74 -0.77, -36.35 15.91, -43.07 20.14" stroke="#1e1e1e" stroke-width="4" fill="none"></path></g></g><mask></mask><g stroke-linecap="round" transform="translate(629.0968014672808 122.97004129924345) rotate(0 58.86631280802658 27.645043871382853)"><path d="M13.82 0 C37.72 -4, 65.71 3.98, 103.91 0 C111.63 -4.71, 113.58 7.87, 117.73 13.82 C117.69 25.09, 113.36 31.26, 117.73 41.47 C119.15 52.82, 112.56 59.47, 103.91 55.29 C87.1 56.4, 58.61 49.8, 13.82 55.29 C5.44 59.68, -0.54 46.41, 0 41.47 C-0.77 30.99, 5.01 24.32, 0 13.82 C4.83 6.11, 7.2 4.99, 13.82 0" stroke="none" stroke-width="0" fill="#ffffff"></path><path d="M13.82 0 C32.66 3.33, 55.68 -0.29, 103.91 0 M13.82 0 C43.15 2.59, 72.09 0.82, 103.91 0 M103.91 0 C116.56 -1.48, 116.63 8.45, 117.73 13.82 M103.91 0 C117.35 -2.75, 122.09 2.95, 117.73 13.82 M117.73 13.82 C115 22.14, 120.64 28.34, 117.73 41.47 M117.73 13.82 C116.55 18.04, 118.07 25.81, 117.73 41.47 M117.73 41.47 C114.9 50.08, 116.91 51.79, 103.91 55.29 M117.73 41.47 C120.82 50.69, 111.75 50.95, 103.91 55.29 M103.91 55.29 C82.07 54, 67.33 57.85, 13.82 55.29 M103.91 55.29 C79.61 52.93, 57.7 53.85, 13.82 55.29 M13.82 55.29 C3.18 55.43, 3.88 47.81, 0 41.47 M13.82 55.29 C1.63 56.45, -4.59 46.87, 0 41.47 M0 41.47 C-1.72 28.46, 1.64 18.7, 0 13.82 M0 41.47 C1.57 33.6, -0.26 26.44, 0 13.82 M0 13.82 C-3.2 0.75, 6.59 1.99, 13.82 0 M0 13.82 C-0.81 7.74, 7.48 -3.61, 13.82 0" stroke="#1e1e1e" stroke-width="4" fill="none"></path></g><g stroke-linecap="round"><g transform="translate(629.6097292395928 127.88905263521393) rotate(0 -168.56669560161728 0.625758354554165)"><path d="M1.81 0.01 C-54.05 0.23, -279.88 0.32, -336.32 -0.15 M-0.65 -2.46 C-56.84 -1.59, -282.5 3.46, -338.95 3.71" stroke="#1e1e1e" stroke-width="4" fill="none"></path></g></g><mask></mask><g stroke-linecap="round"><g transform="translate(631.4782518387271 177.6146026306763) rotate(0 -183.55082003164776 -2.7661141302845067)"><path d="M-0.72 0.43 C-62.4 -0.57, -307.44 -5.54, -368.29 -5.96 M4.09 -1.81 C-58.24 -2.53, -309.36 -2.74, -371.19 -3.56" stroke="#1e1e1e" stroke-width="4" fill="none"></path></g></g><mask></mask><g stroke-linecap="round"><g transform="translate(300.20018632159076 125.61719999377901) rotate(0 -16.88540602427274 23.16170076477684)"><path d="M-1.23 -2.28 C-7.03 5.75, -29.95 40.53, -35.54 48.6 M3.3 2.66 C-2.69 9.84, -30.61 36.76, -37.07 44.44" stroke="#1e1e1e" stroke-width="4" fill="none"></path></g></g><mask></mask><g stroke-linecap="round"><g transform="translate(377.1027144702821 156.01699029491954) rotate(0 -15.59266594854472 46.11672308691199)"><path d="M1.29 1.58 C-3.73 16.81, -25.98 74.56, -31.36 89.13 M-1.45 -0.04 C-6.54 15.8, -27.47 77.01, -32.48 92.27" stroke="#1e1e1e" stroke-width="4" fill="none"></path></g></g><mask></mask><g stroke-linecap="round"><g transform="translate(302.6915497871032 156.04201069845953) rotate(0 12.007078384593513 43.31392306923881)"><path d="M2.07 -0.9 C5.9 13.41, 21.1 72.08, 24.27 87.41 M-0.26 -3.86 C3.3 10.7, 20.15 75.33, 23.34 90.48" stroke="#1e1e1e" stroke-width="4" fill="none"></path></g></g><mask></mask><g stroke-linecap="round" transform="translate(448.52528978621774 158.07366746591032) rotate(0 44.028045109017455 23.273979372939024)"><path d="M11.64 0 C32.77 -4.14, 48.81 1.33, 76.42 0 C86.31 -0.57, 92.24 0, 88.06 11.64 C89.16 15.4, 82.56 27.45, 88.06 34.91 C92.44 42.13, 79.9 45.41, 76.42 46.55 C55.51 51.1, 38.42 51.07, 11.64 46.55 C5.38 49.14, 4.99 38.42, 0 34.91 C4.35 30.22, -2.4 15.67, 0 11.64 C0.7 1.27, 6.24 -5.31, 11.64 0" stroke="none" stroke-width="0" fill="#ffffff"></path><path d="M11.64 0 C34.38 -2.21, 63.91 2.56, 76.42 0 M11.64 0 C26.21 -1.44, 42.17 -0.64, 76.42 0 M76.42 0 C85.58 3.43, 88.73 0.85, 88.06 11.64 M76.42 0 C84.5 1.19, 85.25 -0.68, 88.06 11.64 M88.06 11.64 C87.36 22.75, 84.46 28.97, 88.06 34.91 M88.06 11.64 C86.33 20.26, 88.97 24.62, 88.06 34.91 M88.06 34.91 C85.82 45.82, 85.79 44.62, 76.42 46.55 M88.06 34.91 C91.74 40.42, 80.49 43.16, 76.42 46.55 M76.42 46.55 C59.8 49.97, 40.03 43.5, 11.64 46.55 M76.42 46.55 C56.97 44.4, 35.49 44.47, 11.64 46.55 M11.64 46.55 C1.41 47.89, -1.69 40.62, 0 34.91 M11.64 46.55 C0.66 49.6, 2.72 40.41, 0 34.91 M0 34.91 C-3.56 30.67, 2.28 21.76, 0 11.64 M0 34.91 C-0.76 26.69, -0.7 17.42, 0 11.64 M0 11.64 C-3.23 5.36, 6.35 -1.07, 11.64 0 M0 11.64 C-3.87 0.47, 6.56 -2.32, 11.64 0" stroke="#1e1e1e" stroke-width="4" fill="none"></path></g><g stroke-linecap="round"><g transform="translate(296.13863579798146 244.14885972433302) rotate(0 37.246017749564544 -0.8229581634181784)"><path d="M-0.77 2.69 C11.37 2.14, 62.58 -3.27, 75.26 -4.34 M4.01 1.68 C15.79 1.55, 62.59 -1.15, 74.42 -1.61" stroke="#1e1e1e" stroke-width="4" fill="none"></path></g></g><mask></mask><g stroke-linecap="round"><g transform="translate(290.9360826788232 244.51916169672546) rotate(0 11.318866785036903 16.83229210518016)"><path d="M2.57 -1.67 C6.39 3.26, 19.53 26.88, 22.11 32.26 M0.52 3.59 C4.27 10.11, 18.82 30.56, 21.32 35.34" stroke="#1e1e1e" stroke-width="4" fill="none"></path></g></g><mask></mask><g stroke-linecap="round"><g transform="translate(367.46583749630656 240.45162074306023) rotate(0 -9.846156070240028 14.875943026806056)"><path d="M2.65 -1.01 C-1.5 4.53, -18.27 25.98, -22.35 31.6 M0.65 -4.03 C-2.79 1.91, -12.58 27.28, -16.7 33.78" stroke="#1e1e1e" stroke-width="4" fill="none"></path></g></g><mask></mask><g stroke-linecap="round"><g transform="translate(307.05275067881985 282.1612382571913) rotate(0 15.17703656884649 -0.4822280281200335)"><path d="M-0.6 -1.14 C4.37 -1.37, 25.56 -1.98, 30.95 -1.8 M1.29 0.87 C5.97 0.83, 24.83 -0.15, 29.82 -0.61" stroke="#1e1e1e" stroke-width="4" fill="none"></path></g></g><mask></mask><g transform="translate(320.88609866064735 282.09618520798716) rotate(0 11.491152286834279 15.282462482252384)" stroke="none"><path fill="#1e1e1e" d="M 2.35,-1.27 Q 2.35,-1.27 2.85,-0.40 3.35,0.45 3.86,2.30 4.36,4.14 4.56,5.64 4.76,7.15 4.82,8.95 4.88,10.75 5.94,10.44 6.99,10.13 8.31,10.12 9.62,10.10 11.02,10.09 12.43,10.08 13.71,10.06 15.00,10.05 16.65,10.18 18.31,10.32 19.41,10.88 20.50,11.45 21.29,12.32 22.08,13.20 22.98,14.58 23.87,15.97 24.51,17.07 25.16,18.18 25.59,19.33 26.02,20.48 26.09,21.56 26.17,22.64 26.16,23.92 26.15,25.21 25.78,26.42 25.42,27.63 24.23,29.37 23.03,31.11 22.08,31.82 21.13,32.52 19.94,32.92 18.75,33.31 17.07,33.46 15.40,33.61 14.80,33.69 14.21,33.76 13.79,33.78 13.38,33.80 12.97,33.73 12.55,33.65 12.17,33.48 11.79,33.30 11.46,33.04 11.14,32.79 10.88,32.46 10.62,32.12 10.45,31.74 10.28,31.36 10.21,30.95 10.14,30.54 10.16,30.12 10.19,29.70 10.32,29.30 10.44,28.90 10.66,28.55 10.88,28.19 11.17,27.90 11.47,27.60 11.83,27.39 12.19,27.17 12.59,27.05 12.99,26.93 11.97,27.49 10.94,28.05 11.99,27.08 13.03,26.12 14.69,24.82 16.36,23.53 16.84,23.26 17.33,23.00 17.87,22.90 18.42,22.80 18.96,22.88 19.51,22.96 20.00,23.21 20.50,23.46 20.88,23.86 21.27,24.25 21.51,24.75 21.75,25.25 21.82,25.80 21.89,26.35 21.78,26.89 21.67,27.44 21.39,27.92 21.12,28.39 20.70,28.76 20.28,29.13 19.77,29.34 19.26,29.55 18.71,29.59 18.16,29.63 17.62,29.49 17.08,29.35 16.62,29.05 16.16,28.74 15.82,28.31 15.47,27.87 15.29,27.35 15.10,26.83 15.09,26.28 15.08,25.72 15.25,25.19 15.42,24.67 15.75,24.22 16.08,23.77 16.53,23.46 16.98,23.14 17.51,22.98 18.05,22.83 18.60,22.85 19.15,22.87 19.67,23.06 20.19,23.26 20.62,23.61 21.04,23.96 21.34,24.43 21.63,24.90 21.76,25.44 21.89,25.98 21.83,26.53 21.78,27.08 21.56,27.59 21.33,28.10 20.96,28.50 20.59,28.91 20.59,28.91 20.59,28.91 18.69,30.34 16.79,31.77 15.50,32.76 14.21,33.76 13.79,33.78 13.38,33.80 12.97,33.73 12.55,33.65 12.17,33.48 11.79,33.30 11.46,33.05 11.14,32.79 10.88,32.46 10.62,32.13 10.45,31.74 10.28,31.36 10.21,30.95 10.14,30.54 10.16,30.12 10.19,29.70 10.32,29.30 10.44,28.90 10.66,28.55 10.88,28.19 11.17,27.90 11.47,27.60 11.83,27.39 12.19,27.17 12.59,27.05 12.99,26.93 13.21,26.96 13.43,26.99 14.87,26.83 16.32,26.67 17.40,26.27 18.49,25.87 18.86,24.81 19.24,23.75 19.21,22.62 19.19,21.48 18.67,20.53 18.15,19.58 17.27,18.16 16.40,16.74 15.04,16.73 13.68,16.72 12.33,16.71 10.99,16.69 9.66,16.67 8.34,16.65 6.90,16.61 5.47,16.57 3.88,16.39 2.29,16.20 1.25,15.63 0.20,15.05 -0.43,13.89 -1.06,12.72 -1.11,10.98 -1.16,9.23 -1.17,7.71 -1.17,6.19 -1.31,4.61 -1.45,3.03 -1.90,2.15 -2.35,1.27 -2.46,0.97 -2.58,0.67 -2.63,0.35 -2.67,0.03 -2.63,-0.28 -2.60,-0.60 -2.49,-0.90 -2.38,-1.21 -2.20,-1.47 -2.02,-1.74 -1.78,-1.96 -1.54,-2.18 -1.26,-2.33 -0.98,-2.48 -0.66,-2.56 -0.35,-2.65 -0.03,-2.65 0.28,-2.65 0.60,-2.58 0.91,-2.51 1.20,-2.36 1.49,-2.22 1.73,-2.01 1.97,-1.79 2.16,-1.53 2.35,-1.27 2.35,-1.27 L 2.35,-1.27 Z"></path></g><g stroke-linecap="round"><g transform="translate(727.0921757630654 120.98342125816474) rotate(0 -99.36649775391743 -54.289534655726605)"><path d="M0.98 2.4 C-31.84 -15.84, -164.57 -92.56, -197.73 -110.98 M-1.93 1.24 C-35.01 -16.57, -166.75 -90.86, -199.71 -108.5" stroke="#1e1e1e" stroke-width="4" fill="none"></path></g></g><mask></mask><g stroke-linecap="round"><g transform="translate(639.5542472742015 126.17265295236778) rotate(0 -57.00303909728251 -56.4598089512901)"><path d="M0.47 -2.12 C-18.41 -21.05, -93.23 -92.44, -112.35 -111.2 M-2.72 2.9 C-22.05 -15.7, -96.87 -96.49, -114.48 -115.82" stroke="#1e1e1e" stroke-width="4" fill="none"></path></g></g><mask></mask><g stroke-linecap="round"><g transform="translate(528.9607388156262 17.539064862250868) rotate(0 11.832902938502315 53.5226824934235)"><path d="M0.19 0.72 C3.67 18.79, 17.46 88.32, 21.34 106.28 M-3.14 -1.35 C1.2 17.14, 22.64 89.63, 26.81 108.4" stroke="#1e1e1e" stroke-width="4" fill="none"></path></g></g><mask></mask><g stroke-linecap="round"><g transform="translate(525.7418553465291 22.568165973797633) rotate(0 -31.94471274622353 52.31108882877127)"><path d="M-1.71 -2.78 C-12.48 14.45, -53.58 86.25, -64.44 104.09 M2.56 1.89 C-8.57 19.48, -55.84 89.86, -66.45 107.4" stroke="#1e1e1e" stroke-width="4" fill="none"></path></g></g><mask></mask><g stroke-linecap="round"><g transform="translate(528.4635129138953 16.44817526790534) rotate(0 -116.15530966337676 50.99813345832169)"><path d="M0.41 -0.59 C-38.09 16.87, -194.64 85.21, -232.72 101.97 M-2.81 -3.37 C-40.27 14.78, -189.79 87.85, -227.4 105.37" stroke="#1e1e1e" stroke-width="4" fill="none"></path></g></g><mask></mask><g stroke-linecap="round"><g transform="translate(528.1861132002986 17.679179122075013) rotate(0 -95.60583274635164 51.5828269938608)"><path d="M-1.99 -0.42 C-34.15 17.01, -160.66 86.17, -192.54 103.98 M2.13 -3.12 C-30.2 14.63, -160.64 87.51, -193.34 106.28" stroke="#1e1e1e" stroke-width="4" fill="none"></path></g></g><mask></mask><g stroke-linecap="round"><g transform="translate(520.2985402117951 40.30262800297321) rotate(0 11.536537322100799 11.686694954135305)"><path d="M2.65 -2.45 C6.72 1.32, 19.58 18.53, 22.43 22.19 M0.64 2.39 C4.69 6.68, 18.41 22.68, 21.21 25.82" stroke="#1e1e1e" stroke-width="4" fill="none"></path></g></g><mask></mask><g stroke-linecap="round"><g transform="translate(509.4747174246524 50.96632399173545) rotate(0 14.845352635927412 14.80048490825645)"><path d="M1.88 0 C6.48 5.39, 25.74 24.07, 30.23 29.87 M-0.54 -2.46 C3.37 3.39, 21.71 26.57, 27.54 32.06" stroke="#1e1e1e" stroke-width="4" fill="none"></path></g></g><mask></mask><g stroke-linecap="round"><g transform="translate(496.0443841210693 67.54484337736152) rotate(0 25.974997717774414 23.564281647766308)"><path d="M-0.83 -2.64 C6.78 5.65, 38.9 41.65, 47.59 49.77 M3.91 2.1 C12.22 9.64, 45.06 38.28, 52.78 46" stroke="#1e1e1e" stroke-width="4" fill="none"></path></g></g><mask></mask><g stroke-linecap="round"><g transform="translate(483.33110290735067 84.20342805431567) rotate(0 33.57303266449526 21.266574123245825)"><path d="M-2.23 2.29 C9.47 9.16, 57.95 31.94, 69.37 38.58 M1.76 1.07 C13.3 8.54, 57.61 35.34, 67.93 41.46" stroke="#1e1e1e" stroke-width="4" fill="none"></path></g></g><mask></mask><g stroke-linecap="round" transform="translate(10 223.95221116314542) rotate(0 115.3984375 175.66796875000003)"><path d="M32 0 C66.81 -3.99, 108.7 -0.14, 198.8 0 M32 0 C72.41 0.16, 115.2 1.08, 198.8 0 M198.8 0 C218.7 0.14, 234.68 7.8, 230.8 32 M198.8 0 C217.15 1.16, 226.21 6.85, 230.8 32 M230.8 32 C226.94 139.66, 229.48 249.77, 230.8 319.34 M230.8 32 C228.65 102.77, 227.27 174.08, 230.8 319.34 M230.8 319.34 C227.6 336.82, 222.12 353.32, 198.8 351.34 M230.8 319.34 C229.99 343.8, 223 347.73, 198.8 351.34 M198.8 351.34 C151.97 347.42, 108.07 353.12, 32 351.34 M198.8 351.34 C154.38 347.85, 106.81 348.74, 32 351.34 M32 351.34 C10.86 354.46, -2.9 343.27, 0 319.34 M32 351.34 C11.83 353.09, -0.46 344.1, 0 319.34 M0 319.34 C1.2 253.63, -2.95 183.77, 0 32 M0 319.34 C-4.55 228.53, -3.69 137.16, 0 32 M0 32 C-0.66 8.7, 14.13 -1.2, 32 0 M0 32 C3.96 11.9, 12.79 4.1, 32 0" stroke="#1e1e1e" stroke-width="4" fill="none"></path></g><g stroke-linecap="round" transform="translate(34.8203125 242.89752366314548) rotate(0 25.05859375 23.61328125)"><path d="M11.81 0 C14.18 -1.73, 25.51 2.73, 38.31 0 M11.81 0 C15.83 0.32, 24.08 0.63, 38.31 0 M38.31 0 C47.27 3.48, 50.19 7.43, 50.12 11.81 M38.31 0 C49.63 1.52, 52.05 6.68, 50.12 11.81 M50.12 11.81 C48.07 18.95, 52.37 23.13, 50.12 35.42 M50.12 11.81 C50.92 19.08, 52.1 28.11, 50.12 35.42 M50.12 35.42 C52.29 42.35, 48.41 47.49, 38.31 47.23 M50.12 35.42 C47.57 41.15, 42.25 48.05, 38.31 47.23 M38.31 47.23 C31.33 43.27, 29.04 49.63, 11.81 47.23 M38.31 47.23 C28.87 47.41, 20.26 47.48, 11.81 47.23 M11.81 47.23 C1.63 46.07, 3.89 39.61, 0 35.42 M11.81 47.23 C5.22 43.61, -2.27 45.67, 0 35.42 M0 35.42 C-3.43 31.01, -1.57 21.03, 0 11.81 M0 35.42 C-0.72 26.88, 0.64 15.25, 0 11.81 M0 11.81 C2.64 1.83, 2.63 -1.43, 11.81 0 M0 11.81 C-4.27 0.74, 1.59 -4.54, 11.81 0" stroke="#1e1e1e" stroke-width="4" fill="none"></path></g><g stroke-linecap="round"><g transform="translate(57.0703125 248.39752366314548) rotate(0 0.8983633846044548 21.3070702169789)"><path d="M-0.56 -1.03 C-0.18 6.18, 1.86 35.29, 2.35 42.57 M1.35 1.05 C1.58 8.44, 1.45 36.55, 1.52 43.64" stroke="#1e1e1e" stroke-width="4" fill="none"></path></g></g><mask></mask><g stroke-linecap="round"><g transform="translate(37.0546875 267.0459611631455) rotate(0 23.45692731120158 -0.7370809747325495)"><path d="M0.03 0.09 C8.28 -0.03, 40.1 0.14, 48.33 0.2 M-1.42 -0.91 C6.78 -1.47, 38.96 -1.56, 47.4 -1.67" stroke="#1e1e1e" stroke-width="4" fill="none"></path></g></g><mask></mask><g stroke-linecap="round" transform="translate(150.9905299499631 243.1009143548775) rotate(0 25.058593750000007 23.61328125)"><path d="M11.81 0 C25.41 1.3, 28.26 -2.58, 38.31 0 M11.81 0 C18.78 -0.61, 28.44 -0.48, 38.31 0 M38.31 0 C46.67 0.35, 53.47 4.39, 50.12 11.81 M38.31 0 C41.96 0.16, 46.49 6.8, 50.12 11.81 M50.12 11.81 C48.95 24.12, 47.88 30.41, 50.12 35.42 M50.12 11.81 C50.99 20.14, 51.2 29.67, 50.12 35.42 M50.12 35.42 C47.55 41.95, 42.4 49.95, 38.31 47.23 M50.12 35.42 C53.15 45.23, 45.83 45.53, 38.31 47.23 M38.31 47.23 C33.25 48.91, 28.37 51.21, 11.81 47.23 M38.31 47.23 C28.21 48.05, 23.67 45.92, 11.81 47.23 M11.81 47.23 C1.64 44.61, -2.29 47.01, 0 35.42 M11.81 47.23 C3.23 42.89, -1.91 46.53, 0 35.42 M0 35.42 C3.67 28.72, 1.96 24.12, 0 11.81 M0 35.42 C0.35 28.85, -1.49 19.46, 0 11.81 M0 11.81 C3.77 5.18, 5.07 2.81, 11.81 0 M0 11.81 C-0.29 0.28, 2.56 -3.38, 11.81 0" stroke="#1e1e1e" stroke-width="4" fill="none"></path></g><g stroke-linecap="round"><g transform="translate(173.2405299499631 248.6009143548775) rotate(0 1.3484178829286293 22.07599474295506)"><path d="M0.35 -1.07 C0.62 6.02, 0.87 36.11, 1.33 43.61 M-0.92 0.98 C-0.25 8.8, 2.99 38.41, 3.62 45.23" stroke="#1e1e1e" stroke-width="4" fill="none"></path></g></g><mask></mask><g stroke-linecap="round"><g transform="translate(153.2249049499631 267.2493518548775) rotate(0 24.22327164113522 -0.7128471446879985)"><path d="M-0.81 0.15 C7.34 0.36, 41.2 0.3, 49.26 0.19 M0.97 -0.81 C9.01 -0.87, 40.64 -1.93, 48.81 -1.68" stroke="#1e1e1e" stroke-width="4" fill="none"></path></g></g><mask></mask><g stroke-linecap="round" transform="translate(30.13754046708347 339.011537281828) rotate(0 25.05859375 23.61328125)"><path d="M11.81 0 C20.99 2.84, 30.62 -1.87, 38.31 0 M11.81 0 C18.92 1.76, 29.71 -0.61, 38.31 0 M38.31 0 C48.18 3.46, 46.97 6.82, 50.12 11.81 M38.31 0 C45.89 -4.49, 47.33 2.73, 50.12 11.81 M50.12 11.81 C52.27 18.71, 49.97 31.09, 50.12 35.42 M50.12 11.81 C51.1 20.32, 50.32 26.39, 50.12 35.42 M50.12 35.42 C49.27 42.11, 49.42 45.87, 38.31 47.23 M50.12 35.42 C54.67 41.66, 49.76 49.62, 38.31 47.23 M38.31 47.23 C34.96 46.44, 23.83 50.97, 11.81 47.23 M38.31 47.23 C29.4 48.12, 24.33 46.36, 11.81 47.23 M11.81 47.23 C4.12 44.64, 2.91 45.16, 0 35.42 M11.81 47.23 C3.73 46.42, 0.75 47.59, 0 35.42 M0 35.42 C-3.06 28.32, -2.55 21.66, 0 11.81 M0 35.42 C-1.67 26.82, -2.16 19.25, 0 11.81 M0 11.81 C2.84 -0.03, 7.21 -1.8, 11.81 0 M0 11.81 C-0.67 5.91, 6.15 -2.03, 11.81 0" stroke="#1e1e1e" stroke-width="4" fill="none"></path></g><g stroke-linecap="round"><g transform="translate(52.387540467083454 344.511537281828) rotate(0 1.72154805556871 21.778065357198926)"><path d="M0.72 -0.26 C1.13 7.02, 1.1 36.36, 1.45 43.46 M-0.36 -1.44 C0.52 6.06, 3.34 37.59, 3.8 45" stroke="#1e1e1e" stroke-width="4" fill="none"></path></g></g><mask></mask><g stroke-linecap="round"><g transform="translate(32.37191546708347 363.159974781828) rotate(0 24.136169782280923 -0.7249374405409696)"><path d="M-0.69 0 C7.35 -0.19, 40.88 -1.53, 48.96 -1.45 M1.15 -1.04 C9.02 -1.11, 40.76 -0.44, 48.36 -0.52" stroke="#1e1e1e" stroke-width="4" fill="none"></path></g></g><mask></mask><g stroke-linecap="round" transform="translate(152.17660296708345 335.199037281828) rotate(0 25.058593750000007 23.61328125)"><path d="M11.81 0 C17.22 -2.79, 31.69 3.59, 38.31 0 M11.81 0 C21.1 -1.82, 28.51 -1.26, 38.31 0 M38.31 0 C42.37 3.64, 47.03 4.62, 50.12 11.81 M38.31 0 C42.58 -2.51, 48.06 7.6, 50.12 11.81 M50.12 11.81 C53 16.56, 48.66 19.28, 50.12 35.42 M50.12 11.81 C50.26 21.6, 48.8 27.54, 50.12 35.42 M50.12 35.42 C49.7 47.24, 49.08 48.42, 38.31 47.23 M50.12 35.42 C50.64 44.4, 41.92 51.79, 38.31 47.23 M38.31 47.23 C34.42 49.86, 26.91 44.6, 11.81 47.23 M38.31 47.23 C29.24 48.75, 16.79 45.56, 11.81 47.23 M11.81 47.23 C1.11 46.77, 3.96 44.56, 0 35.42 M11.81 47.23 C6.18 48.91, -2.17 43.79, 0 35.42 M0 35.42 C2.12 27.66, 0.17 24.75, 0 11.81 M0 35.42 C0.14 27.74, 0.22 19.05, 0 11.81 M0 11.81 C-0.11 0.51, 3.61 0.88, 11.81 0 M0 11.81 C0.7 1.79, 1.12 3.73, 11.81 0" stroke="#1e1e1e" stroke-width="4" fill="none"></path></g><g stroke-linecap="round"><g transform="translate(174.42660296708345 340.699037281828) rotate(0 1.070070233941081 22.438475134363415)"><path d="M-0.96 0.58 C-0.29 8, 2.73 36.37, 3.1 43.49 M0.74 -0.17 C1.42 7.56, 2.17 37.6, 2.65 45.05" stroke="#1e1e1e" stroke-width="4" fill="none"></path></g></g><mask></mask><g stroke-linecap="round"><g transform="translate(154.41097796708345 359.347474781828) rotate(0 24.79649063960649 0.004479567514124483)"><path d="M0.96 0.04 C9.01 -0.14, 39.35 -0.21, 47.37 -0.45 M0 -0.99 C8.51 -1.02, 41.48 0.95, 49.59 1" stroke="#1e1e1e" stroke-width="4" fill="none"></path></g></g><mask></mask><g stroke-linecap="round" transform="translate(30.66879046708344 435.120912281828) rotate(0 25.05859375 23.61328125)"><path d="M11.81 0 C18.54 -0.99, 26.18 -1.25, 38.31 0 M11.81 0 C19.62 -0.14, 27.29 -1.63, 38.31 0 M38.31 0 C44.59 -1.93, 50.59 1.7, 50.12 11.81 M38.31 0 C46.84 1.16, 50.81 1.53, 50.12 11.81 M50.12 11.81 C53.47 22.77, 52.14 29.13, 50.12 35.42 M50.12 11.81 C51.37 19.24, 49.27 25.35, 50.12 35.42 M50.12 35.42 C47.77 39.5, 47.75 44.45, 38.31 47.23 M50.12 35.42 C51.49 42.65, 45.04 44.8, 38.31 47.23 M38.31 47.23 C31.26 48.73, 18.48 48.67, 11.81 47.23 M38.31 47.23 C27.65 45.23, 18.6 48.54, 11.81 47.23 M11.81 47.23 C1.01 46.89, 2.86 40.38, 0 35.42 M11.81 47.23 C8.03 43.04, 1.42 41.43, 0 35.42 M0 35.42 C3.33 33.23, -0.71 22.39, 0 11.81 M0 35.42 C-1.07 26.96, -0.02 19.07, 0 11.81 M0 11.81 C-3.95 6.69, 1.5 -0.65, 11.81 0 M0 11.81 C-0.32 -0.22, 7.6 1.93, 11.81 0" stroke="#1e1e1e" stroke-width="4" fill="none"></path></g><g stroke-linecap="round"><g transform="translate(52.91879046708347 440.620912281828) rotate(0 0.12114730774793436 21.88200170888564)"><path d="M-0.14 -0.11 C-0.02 7.17, 1.68 36.03, 1.92 43.44 M-1.67 -1.21 C-1.83 6.28, -0.06 37.68, 0.86 44.97" stroke="#1e1e1e" stroke-width="4" fill="none"></path></g></g><mask></mask><g stroke-linecap="round"><g transform="translate(32.90316546708344 459.269349781828) rotate(0 24.007769403466952 -0.3147875968020628)"><path d="M-0.22 -0.01 C7.72 0.11, 39.43 0.65, 47.51 0.63 M-1.79 -1.07 C6.55 -1.26, 41.6 -1.4, 49.81 -1.01" stroke="#1e1e1e" stroke-width="4" fill="none"></path></g></g><mask></mask><g stroke-linecap="round" transform="translate(155.02035296708345 434.206849781828) rotate(0 25.058593750000007 23.61328125)"><path d="M11.81 0 C14.8 0.25, 28.97 2.82, 38.31 0 M11.81 0 C17.91 2.01, 26.84 1.16, 38.31 0 M38.31 0 C48.2 1.45, 53.18 2.52, 50.12 11.81 M38.31 0 C45.42 4.17, 45.97 5.67, 50.12 11.81 M50.12 11.81 C53.42 16.53, 53.72 24.1, 50.12 35.42 M50.12 11.81 C49.14 17.75, 49.73 26.95, 50.12 35.42 M50.12 35.42 C47.3 45.16, 47.54 44.79, 38.31 47.23 M50.12 35.42 C54.31 44.56, 49.87 48.76, 38.31 47.23 M38.31 47.23 C34.29 49.01, 23.99 49.55, 11.81 47.23 M38.31 47.23 C31.79 48.19, 22.72 45.86, 11.81 47.23 M11.81 47.23 C6.51 48.95, 2.3 44.46, 0 35.42 M11.81 47.23 C3.43 47.65, 2.41 44.53, 0 35.42 M0 35.42 C3.33 32.77, 1.31 25.3, 0 11.81 M0 35.42 C0.67 25.41, -1.64 17.8, 0 11.81 M0 11.81 C3.04 1.31, 5.52 -3.58, 11.81 0 M0 11.81 C-1.6 1.74, 5.61 2.36, 11.81 0" stroke="#1e1e1e" stroke-width="4" fill="none"></path></g><g stroke-linecap="round"><g transform="translate(177.27035296708345 439.706849781828) rotate(0 0.8281690631108347 22.58385619296689)"><path d="M0.08 1.05 C0.57 8.44, 2.47 36.2, 2.99 43.2 M-1.34 0.56 C-0.93 8.23, 1.76 37.33, 2.49 44.61" stroke="#1e1e1e" stroke-width="4" fill="none"></path></g></g><mask></mask><g stroke-linecap="round"><g transform="translate(157.25472796708345 458.355287281828) rotate(0 24.619999594469554 -0.37185937033035543)"><path d="M0.85 -0.25 C9.07 -0.54, 41.62 -0.84, 49.4 -0.66 M-0.16 -1.43 C7.99 -1.02, 40.67 0.6, 49.03 0.68" stroke="#1e1e1e" stroke-width="4" fill="none"></path></g></g><mask></mask><g stroke-linecap="round" transform="translate(95.828125 500.4678361631455) rotate(0 19.2109375 37.6953125)"><path d="M9.61 0 C14.82 0.11, 18.11 3.21, 28.82 0 M9.61 0 C15.33 0.71, 23.04 0.01, 28.82 0 M28.82 0 C35.3 -2.41, 35.24 7.11, 38.42 9.61 M28.82 0 C38.69 1.94, 35.14 5.43, 38.42 9.61 M38.42 9.61 C41.16 26.76, 41.07 47.54, 38.42 65.79 M38.42 9.61 C37.18 21.41, 36.49 36.11, 38.42 65.79 M38.42 65.79 C35.19 75.33, 37.85 78.02, 28.82 75.39 M38.42 65.79 C39.74 74.72, 37.98 78.58, 28.82 75.39 M28.82 75.39 C22.18 77.56, 13.69 75.14, 9.61 75.39 M28.82 75.39 C22.05 74.9, 19.33 76.64, 9.61 75.39 M9.61 75.39 C3.97 71.98, 1.61 72.18, 0 65.79 M9.61 75.39 C4.17 77.78, -1.01 75.26, 0 65.79 M0 65.79 C3.02 42.91, 0.25 25.13, 0 9.61 M0 65.79 C1.76 46.26, 0.69 26.75, 0 9.61 M0 9.61 C2.74 0.68, 4.46 0.2, 9.61 0 M0 9.61 C-0.65 4.55, 7.25 0.15, 9.61 0" stroke="#1e1e1e" stroke-width="4" fill="none"></path></g><g stroke-linecap="round" transform="translate(119.6484375 534.3584611631454) rotate(0 2.3671875 6.140625)"><path d="M0.6 0.93 C1.17 0.48, 2.89 -0.55, 3.48 -0.11 C4.07 0.32, 3.99 2.36, 4.13 3.54 C4.26 4.72, 4.26 5.84, 4.31 6.96 C4.36 8.07, 4.84 9.2, 4.43 10.23 C4.02 11.26, 2.43 12.9, 1.83 13.14 C1.24 13.39, 1.05 12.86, 0.88 11.7 C0.72 10.55, 1.02 7.71, 0.86 6.21 C0.69 4.7, -0.19 3.79, -0.11 2.68 C-0.04 1.58, 1.05 0.1, 1.33 -0.41 C1.61 -0.93, 1.44 -0.69, 1.55 -0.42 M2.4 1.6 C2.83 1.81, 2.54 1.87, 2.81 2.6 C3.08 3.34, 3.79 4.87, 4.01 5.99 C4.22 7.11, 4.37 8.19, 4.1 9.31 C3.83 10.42, 2.76 12.39, 2.37 12.7 C1.98 13, 2.29 12.05, 1.77 11.12 C1.25 10.2, -0.46 8.16, -0.76 7.16 C-1.07 6.16, -0.47 6.03, -0.05 5.14 C0.37 4.24, 1.12 2.53, 1.77 1.8 C2.43 1.07, 3.8 0.88, 3.88 0.74 C3.97 0.6, 2.31 0.69, 2.28 0.93" stroke="#1e1e1e" stroke-width="4" fill="none"></path></g></svg>