<?xml version="1.0" standalone="no"?>
<!DOCTYPE svg PUBLIC "-//W3C//DTD SVG 1.1//EN" "http://www.w3.org/Graphics/SVG/1.1/DTD/svg11.dtd">
<svg version="1.1" xmlns="http://www.w3.org/2000/svg" viewBox="0 0 621.0885416666679 570.3920062526324" width="621.0885416666679" height="570.3920062526324"><!-- svg-source:excalidraw --><metadata></metadata><defs><style class="style-fonts">
      </style></defs><g stroke-linecap="round" transform="translate(10 368.2169327063263) rotate(0 107.40079477378012 94.95743551513453)"><path d="M32 0 C93.11 4.62, 146.64 7.27, 182.8 0 C200.02 -5.26, 218.32 11.61, 214.8 32 C218.12 63.06, 215.15 97.26, 214.8 157.91 C214.44 178.96, 206.54 194.83, 182.8 189.91 C128.67 189.24, 75.24 197.34, 32 189.91 C6.32 190.46, 3.65 181.17, 0 157.91 C-3.84 126.25, -1.43 103.72, 0 32 C3.68 10.17, 9.51 -0.9, 32 0" stroke="none" stroke-width="0" fill="#ffffff"></path><path d="M32 0 C68.46 3.99, 104.5 2.19, 182.8 0 M32 0 C88.36 3.78, 145.48 1, 182.8 0 M182.8 0 C204.3 0.73, 211.79 10.82, 214.8 32 M182.8 0 C208.71 -1.93, 214.09 11.55, 214.8 32 M214.8 32 C216.97 67.19, 212.29 106, 214.8 157.91 M214.8 32 C214.71 79.32, 212.19 124.27, 214.8 157.91 M214.8 157.91 C218.31 181.94, 205.49 193.66, 182.8 189.91 M214.8 157.91 C215.27 177.45, 208.52 192.07, 182.8 189.91 M182.8 189.91 C139.52 187.41, 90.08 184.89, 32 189.91 M182.8 189.91 C126.13 187.64, 68.7 187.67, 32 189.91 M32 189.91 C11.24 188.29, -2.34 180.74, 0 157.91 M32 189.91 C12.93 187.21, 2.91 182.21, 0 157.91 M0 157.91 C0.8 113.58, -2.79 73.69, 0 32 M0 157.91 C1.1 130.76, 0.01 102.03, 0 32 M0 32 C0.05 7.31, 8.94 -2.93, 32 0 M0 32 C4.22 10.08, 10.9 3.71, 32 0" stroke="#1e1e1e" stroke-width="4" fill="none"></path></g><g stroke-linecap="round"><g transform="translate(20.12247256785993 373.43454692079484) rotate(0 50.12770030673402 -52.76474436430283)"><path d="M2.13 2.47 C19.01 -15.12, 84.15 -85.56, 100.42 -104.12 M-0.16 1.34 C16.51 -17.14, 82.29 -89.91, 98.65 -108" stroke="#1e1e1e" stroke-width="4" fill="none"></path></g></g><mask></mask><g stroke-linecap="round"><g transform="translate(124.9586284800834 266.86264008237674) rotate(0 46.286817683008934 53.59719111227139)"><path d="M0.87 2.09 C16.3 19.05, 79.1 86.57, 94.67 104.25 M-2.1 0.75 C12.77 19.18, 76.79 89.34, 92.54 106.44" stroke="#1e1e1e" stroke-width="4" fill="none"></path></g></g><mask></mask><g stroke-linecap="round"><g transform="translate(40.62388158973573 404.93523497769684) rotate(0 -1.3157553538932945 19.243708283207184)"><path d="M0.08 -1.14 C-0.27 5.32, -1.49 33.11, -1.72 39.62 M-1.34 0.88 C-1.88 6.9, -2.61 31.49, -2.71 37.79" stroke="#1e1e1e" stroke-width="4" fill="none"></path></g></g><mask></mask><g stroke-linecap="round"><g transform="translate(42.000412244000586 406.7667285168273) rotate(0 22.413364803191342 -0.19170459924387728)"><path d="M-0.08 0.55 C7.64 0.59, 38.7 -0.91, 46.41 -0.94 M-1.58 -0.2 C6 0.04, 37.79 -0.32, 45.62 0.02" stroke="#1e1e1e" stroke-width="4" fill="none"></path></g></g><mask></mask><g stroke-linecap="round"><g transform="translate(85.14391864362358 405.80594502088996) rotate(0 -0.5246506508813837 17.86838880225531)"><path d="M0.3 -1.12 C0.27 4.93, -0.03 30.55, -0.28 36.85 M-0.99 0.91 C-1.18 6.53, -1.57 28.66, -1.21 34.84" stroke="#1e1e1e" stroke-width="4" fill="none"></path></g></g><mask></mask><g stroke-linecap="round"><g transform="translate(86.48904555672578 442.0955383153544) rotate(0 -22.74136499170821 0.865480211593848)"><path d="M0.05 0.22 C-7.59 0.55, -38.29 0.86, -45.53 0.88 M-1.38 -0.71 C-8.68 -0.07, -36.26 2.09, -43.3 2.44" stroke="#1e1e1e" stroke-width="4" fill="none"></path></g></g><mask></mask><g stroke-linecap="round"><g transform="translate(62.287229034603484 407.87763443400473) rotate(0 0.5380206888032575 18.112757724965178)"><path d="M-0.9 0.05 C-0.58 6, 1.73 29.82, 1.98 35.93 M0.82 -0.97 C1.09 5.12, 1.84 30.69, 1.66 37.2" stroke="#1e1e1e" stroke-width="4" fill="none"></path></g></g><mask></mask><g stroke-linecap="round"><g transform="translate(46.072430681329564 425.7522107230046) rotate(0 18.09262496362622 -0.6388244044176474)"><path d="M1.19 -0.5 C7.32 -0.4, 30.01 0.6, 35.82 0.65 M0.36 -1.81 C6.39 -2.1, 28.95 -1.78, 34.78 -1.36" stroke="#1e1e1e" stroke-width="4" fill="none"></path></g></g><mask></mask><g stroke-linecap="round"><g transform="translate(143.3587860651937 409.55388189551815) rotate(0 -1.3614715895309502 19.456598861110194)"><path d="M-0.19 0.23 C-0.65 6.72, -1.31 31.76, -1.61 38.41 M-1.74 -0.69 C-2.47 5.98, -2.34 33.1, -2.54 39.61" stroke="#1e1e1e" stroke-width="4" fill="none"></path></g></g><mask></mask><g stroke-linecap="round"><g transform="translate(144.73531671945852 411.38537543464855) rotate(0 22.180240120288047 0.47767564735841006)"><path d="M0.04 -0.66 C7.69 -0.49, 38.24 1.16, 45.76 1.24 M-1.4 1.61 C6.08 1.45, 36.47 -0.21, 44.64 -0.32" stroke="#1e1e1e" stroke-width="4" fill="none"></path></g></g><mask></mask><g stroke-linecap="round"><g transform="translate(187.87882311908083 410.42459193871133) rotate(0 0.2584850597489492 19.11560994370356)"><path d="M-0.34 1.06 C-0.55 7.22, -1.11 30.24, -1.23 36.29 M1.69 0.58 C1.85 6.97, 1.66 31.85, 1.02 37.65" stroke="#1e1e1e" stroke-width="4" fill="none"></path></g></g><mask></mask><g stroke-linecap="round"><g transform="translate(189.22395003218372 446.7141852331757) rotate(0 -22.240203439781 -0.0006049890837971361)"><path d="M-0.89 -0.34 C-8.39 -0.26, -37.97 1.48, -45.32 1.56 M0.84 -1.56 C-6.23 -1.31, -35.17 -0.62, -42.98 -0.18" stroke="#1e1e1e" stroke-width="4" fill="none"></path></g></g><mask></mask><g stroke-linecap="round"><g transform="translate(165.0221335100614 412.4962813518261) rotate(0 0.1856508606283569 18.482791461194154)"><path d="M-0.69 0.73 C-0.48 6.74, 0.06 29.59, 0.38 35.73 M1.14 0.06 C1.24 6.25, -0.7 30.94, -0.77 36.9" stroke="#1e1e1e" stroke-width="4" fill="none"></path></g></g><mask></mask><g stroke-linecap="round"><g transform="translate(148.8073351567875 430.37085764082593) rotate(0 18.028954976449654 0.432617931435459)"><path d="M-0.4 -0.7 C5.79 -0.56, 30.57 1.23, 36.46 1.56 M1.59 1.55 C7.72 1.32, 29.8 0.4, 35.75 0.04" stroke="#1e1e1e" stroke-width="4" fill="none"></path></g></g><mask></mask><g stroke-linecap="round"><g transform="translate(85.73012181197976 548.0319269038557) rotate(0 -1.8520919637276023 -28.212441568811528)"><path d="M1.05 2.68 C0.41 -6.25, -4.61 -45.53, -4.75 -55.2 M-1.83 1.67 C-1.54 -7.89, 0.05 -48.85, 0.3 -59.1" stroke="#1e1e1e" stroke-width="4" fill="none"></path></g></g><mask></mask><g stroke-linecap="round"><g transform="translate(84.79847749084243 489.74939889770195) rotate(0 21.827899862584175 0.8525929629082043)"><path d="M-1.06 0.87 C6.31 0.96, 37.2 1.51, 44.72 1.7 M0.58 0.28 C7.85 0.55, 37.17 0.01, 44.32 0" stroke="#1e1e1e" stroke-width="4" fill="none"></path></g></g><mask></mask><g stroke-linecap="round"><g transform="translate(128.67997180777067 489.31904795681334) rotate(0 0.9244615014872153 28.22586582870133)"><path d="M2.46 1.88 C3.04 10.88, 1.35 47.61, 1 56.02 M0.34 0.43 C0.86 8.53, -0.45 43.37, -0.73 52.43" stroke="#1e1e1e" stroke-width="4" fill="none"></path></g></g><mask></mask><g stroke-linecap="round" transform="translate(112.7373392112344 516.8064632858941) rotate(0 3.2241174259574166 4.283493086053738)"><path d="M1.83 0.87 C2.35 0.53, 3.56 0.12, 4.29 0.29 C5.01 0.46, 5.73 1.09, 6.17 1.9 C6.62 2.71, 7.12 4.13, 6.95 5.13 C6.79 6.14, 5.72 7.31, 5.17 7.95 C4.63 8.58, 4.34 8.92, 3.69 8.94 C3.05 8.96, 1.9 8.83, 1.28 8.06 C0.66 7.3, 0.11 5.28, -0.02 4.34 C-0.16 3.41, 0.16 3.13, 0.47 2.44 C0.78 1.76, 1.43 0.56, 1.84 0.22 C2.25 -0.11, 2.92 0.33, 2.93 0.43 M2.46 0.09 C3.27 -0.03, 4.75 -0.02, 5.34 0.37 C5.92 0.76, 5.65 1.73, 5.98 2.44 C6.31 3.14, 7.55 3.84, 7.31 4.61 C7.07 5.38, 5.18 6.46, 4.56 7.05 C3.93 7.63, 4.2 8.17, 3.57 8.1 C2.94 8.04, 1.22 7.34, 0.77 6.63 C0.33 5.92, 0.89 4.82, 0.92 3.85 C0.94 2.88, 0.75 1.53, 0.92 0.82 C1.09 0.11, 1.84 -0.29, 1.95 -0.41 C2.05 -0.53, 1.61 -0.1, 1.57 0.1" stroke="none" stroke-width="0" fill="#ffffff"></path><path d="M3.65 0.07 C4.43 -0.12, 5.32 0.15, 5.88 0.73 C6.44 1.31, 6.96 2.67, 7 3.55 C7.03 4.43, 6.47 5.08, 6.09 5.99 C5.72 6.91, 5.53 8.6, 4.76 9.01 C3.99 9.43, 2.2 8.91, 1.48 8.5 C0.76 8.08, 0.65 7.36, 0.43 6.52 C0.2 5.69, 0.04 4.49, 0.13 3.49 C0.22 2.49, 0.33 1.04, 0.97 0.52 C1.61 0, 3.52 0.36, 3.97 0.38 C4.43 0.4, 3.67 0.62, 3.69 0.67 M3.19 -0.15 C3.88 -0.24, 4.83 0.16, 5.37 0.93 C5.9 1.71, 6.28 3.39, 6.4 4.49 C6.51 5.6, 6.54 6.91, 6.06 7.57 C5.59 8.23, 4.32 8.55, 3.55 8.46 C2.78 8.36, 2.11 7.64, 1.47 7.03 C0.83 6.41, -0.25 5.54, -0.3 4.78 C-0.34 4.02, 0.83 3.05, 1.18 2.46 C1.53 1.88, 1.21 1.68, 1.82 1.27 C2.44 0.85, 4.57 0.06, 4.85 -0.04 C5.12 -0.14, 3.54 0.63, 3.46 0.66" stroke="#1e1e1e" stroke-width="4" fill="none"></path></g><g stroke-linecap="round" transform="translate(290.7703818150429 526.8996940739438) rotate(0 62.78916347483681 16.74615608934431)"><path d="M8.37 0 C40.19 -3.16, 72.1 3.58, 117.21 0 C117.69 -2.43, 120.97 6.89, 125.58 8.37 C129.8 9.52, 126.85 12.75, 125.58 25.12 C122.54 27.77, 117.57 32.92, 117.21 33.49 C96.98 30.43, 75.55 30.23, 8.37 33.49 C-1.99 31.63, 1.19 34.17, 0 25.12 C0.51 14.55, 1.18 11.21, 0 8.37 C-5.46 1.75, 5.3 1.78, 8.37 0" stroke="none" stroke-width="0" fill="#ffffff"></path><path d="M8.37 0 C43.14 3.59, 82.93 0.18, 117.21 0 M8.37 0 C48.76 -1.49, 88.3 -0.28, 117.21 0 M117.21 0 C126.72 -3.22, 127.03 3.09, 125.58 8.37 M117.21 0 C124.36 0.42, 126.23 0.92, 125.58 8.37 M125.58 8.37 C123.73 14.54, 127.86 17.38, 125.58 25.12 M125.58 8.37 C124.04 14.12, 124.6 19.43, 125.58 25.12 M125.58 25.12 C125.39 30.56, 124.76 34.9, 117.21 33.49 M125.58 25.12 C125.33 30.32, 122.84 29.63, 117.21 33.49 M117.21 33.49 C88.76 35.69, 64.56 39.02, 8.37 33.49 M117.21 33.49 C87.15 33.61, 57.12 33.02, 8.37 33.49 M8.37 33.49 C-0.97 36, 0.67 28.3, 0 25.12 M8.37 33.49 C7.37 32.46, -0.15 31.4, 0 25.12 M0 25.12 C-0.46 22.48, 2.65 18.84, 0 8.37 M0 25.12 C-1.64 19.49, 0.78 12.67, 0 8.37 M0 8.37 C0.39 5.4, 4.17 -3.41, 8.37 0 M0 8.37 C1.64 -0.39, 0.67 -3.8, 8.37 0" stroke="#1e1e1e" stroke-width="4" fill="none"></path></g><g stroke-linecap="round"><g transform="translate(333.31721713259014 527.6803306643926) rotate(0 0.3430968379960575 -164.3422246505611)"><path d="M2.67 1.31 C2.64 -52.86, 0.84 -271.61, 0.1 -326.13 M0.67 -0.44 C0.27 -55.28, -1.14 -275.07, -1.98 -330" stroke="#1e1e1e" stroke-width="4" fill="none"></path></g></g><mask></mask><g stroke-linecap="round"><g transform="translate(374.80945701472024 526.5493563660541) rotate(0 0.3992479300249556 -163.69107094305684)"><path d="M0.28 2.1 C-0.45 -52.42, -1.57 -270.83, -1.74 -325.79 M-3.01 0.77 C-3.06 -54.61, 3.79 -275.31, 3.81 -329.48" stroke="#1e1e1e" stroke-width="4" fill="none"></path></g></g><mask></mask><g stroke-linecap="round"><g transform="translate(374.3566728743642 216.2113351559334) rotate(0 -19.705791948289345 10.30125249088971)"><path d="M-1.57 2.43 C-8.22 5.3, -33 16.22, -39.64 19.32 M2.78 1.29 C-4.33 3.06, -35.75 12.04, -42.19 14.61" stroke="#1e1e1e" stroke-width="4" fill="none"></path></g></g><mask></mask><g stroke-linecap="round"><g transform="translate(372.8333783357814 250.92019769470227) rotate(0 -18.547647391483878 9.703961068999462)"><path d="M-0.57 0.56 C-7.21 3.66, -35.45 18.35, -41.4 21.01 M4.31 -1.6 C-1.33 1.96, -29.45 13.89, -36.27 17.23" stroke="#1e1e1e" stroke-width="4" fill="none"></path></g></g><mask></mask><g stroke-linecap="round"><g transform="translate(376.43435630392514 289.4149413110802) rotate(0 -17.73337594792315 9.960813188489965)"><path d="M-2.34 2.26 C-8.29 4.91, -30.36 13.72, -36.31 16.5 M1.59 1.01 C-4.44 3.9, -30.24 15.38, -37.06 18.91" stroke="#1e1e1e" stroke-width="4" fill="none"></path></g></g><mask></mask><g stroke-linecap="round"><g transform="translate(375.89525874731186 337.248948798916) rotate(0 -18.493682855293827 10.226087498080403)"><path d="M2.75 -2.25 C-3.2 0.53, -31.24 15.42, -38.05 18.96 M0.8 2.7 C-5.22 5.78, -33.04 19.44, -39.74 22.7" stroke="#1e1e1e" stroke-width="4" fill="none"></path></g></g><mask></mask><g stroke-linecap="round"><g transform="translate(370.4362659435361 338.32031618361776) rotate(0 -19.408987106010983 10.316784639295633)"><path d="M1.01 0.21 C-5.8 3.75, -31.5 16.11, -38.11 19.01 M-1.88 -2.15 C-9.23 2.11, -33.43 19.07, -39.83 22.78" stroke="#1e1e1e" stroke-width="4" fill="none"></path></g></g><mask></mask><g stroke-linecap="round"><g transform="translate(373.7598285498417 382.6914998215129) rotate(0 -19.867465490028934 9.2802153109875)"><path d="M0.95 0.26 C-5.66 3.16, -31.73 14.36, -38.67 17.62 M-1.97 -2.07 C-9.01 1.19, -35.23 17.81, -40.69 20.63" stroke="#1e1e1e" stroke-width="4" fill="none"></path></g></g><mask></mask><g stroke-linecap="round"><g transform="translate(373.14745559718347 436.760591871525) rotate(0 -20.151586272121136 7.787718498122359)"><path d="M0.4 -1.14 C-6.54 2.12, -34.35 16.76, -40.7 19.8 M-2.83 -4.22 C-8.94 -1.85, -29.2 11.43, -35.19 15.35" stroke="#1e1e1e" stroke-width="4" fill="none"></path></g></g><mask></mask><g stroke-linecap="round"><g transform="translate(374.84849157678866 477.298649687087) rotate(0 -18.251560190171688 9.489255609449458)"><path d="M-1.64 1.04 C-7.98 4.08, -31.74 13.85, -37.69 17.11 M2.67 -0.86 C-3.96 2.61, -32.37 17.03, -39.18 19.84" stroke="#1e1e1e" stroke-width="4" fill="none"></path></g></g><mask></mask><g stroke-linecap="round" transform="translate(493.3559160506147 121.75430771159951) rotate(0 58.86631280802658 27.645043871382853)"><path d="M13.82 0 C36.78 -0.28, 58.53 -0.48, 103.91 0 C108.34 -1.86, 118.92 8.07, 117.73 13.82 C118.91 18.15, 119.7 31.13, 117.73 41.47 C112.27 49.64, 115.63 57.07, 103.91 55.29 C73.18 58.26, 30.29 61.49, 13.82 55.29 C9.28 56.23, 0.39 47.83, 0 41.47 C0.72 35.56, 3.39 30.6, 0 13.82 C-0.88 2.77, 3.91 -0.02, 13.82 0" stroke="none" stroke-width="0" fill="#ffffff"></path><path d="M13.82 0 C33.23 1.64, 59.92 0.21, 103.91 0 M13.82 0 C45.55 -1.67, 79.5 -2.72, 103.91 0 M103.91 0 C112.94 -0.14, 119.7 6.01, 117.73 13.82 M103.91 0 C112.88 -0.38, 117.79 0.75, 117.73 13.82 M117.73 13.82 C116.82 21.12, 120.56 31.55, 117.73 41.47 M117.73 13.82 C118.37 20.81, 119.32 28.09, 117.73 41.47 M117.73 41.47 C113.97 53.19, 113.8 52.89, 103.91 55.29 M117.73 41.47 C122.31 49.65, 112.97 55.99, 103.91 55.29 M103.91 55.29 C81.76 56.89, 63.54 57.41, 13.82 55.29 M103.91 55.29 C72.33 55.07, 45.23 53.59, 13.82 55.29 M13.82 55.29 C5 57.9, 1.37 47.27, 0 41.47 M13.82 55.29 C6.25 52.11, -2.12 46.89, 0 41.47 M0 41.47 C-0.35 32.43, -0.63 29.04, 0 13.82 M0 41.47 C1.7 34.83, 0.04 28.75, 0 13.82 M0 13.82 C3.64 1.92, 5.73 -3.6, 13.82 0 M0 13.82 C-2.5 2.2, 0.32 -0.47, 13.82 0" stroke="#1e1e1e" stroke-width="4" fill="none"></path></g><g stroke-linecap="round"><g transform="translate(493.8688438229267 126.67331904756999) rotate(0 -167.44139248577258 -0.3162021167853908)"><path d="M1.77 1.8 C-54.26 2.3, -278.27 1.46, -334.83 1.36 M-0.71 0.31 C-57.18 0.18, -281.47 -1.98, -336.65 -2.59" stroke="#1e1e1e" stroke-width="4" fill="none"></path></g></g><mask></mask><g stroke-linecap="round"><g transform="translate(495.7373664220611 176.39886904303233) rotate(0 -184.14004025879987 -1.9980738756469094)"><path d="M0.77 1.94 C-61.03 1.33, -307.38 -0.84, -369.05 -1.9 M-2.26 0.53 C-63.34 -1.04, -303.51 -5.57, -363.73 -5.94" stroke="#1e1e1e" stroke-width="4" fill="none"></path></g></g><mask></mask><g stroke-linecap="round"><g transform="translate(164.4593009049247 124.40146640613507) rotate(0 -18.440460262785876 24.905546736450574)"><path d="M-1.99 1.78 C-8.62 9.18, -32.99 39.12, -39 46.29 M2.12 0.29 C-3.7 7.92, -26.67 41.78, -33.78 49.53" stroke="#1e1e1e" stroke-width="4" fill="none"></path></g></g><mask></mask><g stroke-linecap="round"><g transform="translate(241.36182905361602 154.80125670727557) rotate(0 -17.863967403371902 43.330658938962756)"><path d="M-2.17 -0.73 C-7.62 13.61, -29.43 72.71, -34.66 87.82 M1.84 -3.59 C-3.91 10.87, -31.36 74.16, -37.57 90.26" stroke="#1e1e1e" stroke-width="4" fill="none"></path></g></g><mask></mask><g stroke-linecap="round"><g transform="translate(166.95066437043715 154.82627711081557) rotate(0 10.250345219135653 44.86135766096427)"><path d="M-1.23 -2.2 C2.75 12.64, 17.65 73.08, 21.73 88.35 M3.29 2.77 C7.09 18.16, 16.28 78.32, 19.42 91.93" stroke="#1e1e1e" stroke-width="4" fill="none"></path></g></g><mask></mask><g stroke-linecap="round" transform="translate(312.7844043695517 156.85793387826635) rotate(0 44.028045109017455 23.273979372939024)"><path d="M11.64 0 C28.32 1.37, 53.64 -5.74, 76.42 0 C83.14 2.51, 89.84 8.63, 88.06 11.64 C89.27 12.86, 92.5 27.34, 88.06 34.91 C89 43.05, 81.32 46.25, 76.42 46.55 C64 49.41, 52.53 45.71, 11.64 46.55 C2.05 45.85, -0.02 39.1, 0 34.91 C-0.8 28.38, -3.86 13.95, 0 11.64 C-2.33 4.54, 2.63 4.55, 11.64 0" stroke="none" stroke-width="0" fill="#ffffff"></path><path d="M11.64 0 C28.08 2.03, 46.2 -0.15, 76.42 0 M11.64 0 C29.68 -0.38, 51.28 0.83, 76.42 0 M76.42 0 C84.38 3.23, 91.59 3.26, 88.06 11.64 M76.42 0 C81.92 2.11, 90.15 1.86, 88.06 11.64 M88.06 11.64 C90.22 21.45, 85.31 33.9, 88.06 34.91 M88.06 11.64 C86.91 19.83, 87.91 24.46, 88.06 34.91 M88.06 34.91 C89.77 46.18, 86.42 47.86, 76.42 46.55 M88.06 34.91 C92.2 42.3, 80.5 46.39, 76.42 46.55 M76.42 46.55 C55.4 48.05, 25.76 48.1, 11.64 46.55 M76.42 46.55 C61.4 45.44, 47.82 45.3, 11.64 46.55 M11.64 46.55 C3.05 45.91, 3.99 39.03, 0 34.91 M11.64 46.55 C1.89 42.77, 3.37 40.68, 0 34.91 M0 34.91 C-2.42 29.28, -3.33 19.24, 0 11.64 M0 34.91 C-1.22 29.64, -0.56 24.59, 0 11.64 M0 11.64 C-1.1 7.88, 2.63 -3.42, 11.64 0 M0 11.64 C-1.53 4.85, 6.72 2.57, 11.64 0" stroke="#1e1e1e" stroke-width="4" fill="none"></path></g><g stroke-linecap="round"><g transform="translate(160.3977503813154 242.93312613668905) rotate(0 35.61125446650556 -0.9541066924709014)"><path d="M1.38 0.98 C13.49 0.52, 60.65 -1.89, 72.54 -2.89 M-1.32 -0.95 C10.42 -0.95, 58.18 0.98, 70.22 0.61" stroke="#1e1e1e" stroke-width="4" fill="none"></path></g></g><mask></mask><g stroke-linecap="round"><g transform="translate(155.19519726215714 243.3034281090815) rotate(0 7.9095312290066175 15.223603612926752)"><path d="M-0.15 -0.23 C2.87 4.76, 16.43 25.68, 19.49 30.92 M-3.68 -2.82 C-1.15 2.35, 14.03 27.26, 17.28 33.27" stroke="#1e1e1e" stroke-width="4" fill="none"></path></g></g><mask></mask><g stroke-linecap="round"><g transform="translate(231.7249520796405 239.23588715541626) rotate(0 -12.515050939850681 16.189927110413862)"><path d="M0.03 -2.35 C-3.64 3.06, -19.1 26.17, -22.17 32.22 M-3.39 2.54 C-7.53 8.27, -22.5 29.02, -25.06 34.73" stroke="#1e1e1e" stroke-width="4" fill="none"></path></g></g><mask></mask><g stroke-linecap="round"><g transform="translate(176.3665527621538 277.65644216954735) rotate(0 15.943069741453911 0.001072713397888947)"><path d="M-0.52 -0.88 C4.88 -0.93, 27.09 -1.41, 32.41 -1.29 M1.41 1.27 C6.74 1.5, 27.17 0.71, 32.04 0.16" stroke="#1e1e1e" stroke-width="4" fill="none"></path></g></g><mask></mask><g transform="translate(190.1999007439813 277.5913891203432) rotate(0 11.491152286834279 15.282462482252384)" stroke="none"><path fill="#1e1e1e" d="M 2.35,-1.27 Q 2.35,-1.27 2.85,-0.40 3.35,0.45 3.86,2.30 4.36,4.14 4.56,5.64 4.76,7.15 4.82,8.95 4.88,10.75 5.94,10.44 6.99,10.13 8.31,10.12 9.62,10.10 11.02,10.09 12.43,10.08 13.71,10.06 15.00,10.05 16.65,10.18 18.31,10.32 19.41,10.88 20.50,11.45 21.29,12.32 22.08,13.20 22.98,14.58 23.87,15.97 24.51,17.07 25.16,18.18 25.59,19.33 26.02,20.48 26.09,21.56 26.17,22.64 26.16,23.92 26.15,25.21 25.78,26.42 25.42,27.63 24.23,29.37 23.03,31.11 22.08,31.82 21.13,32.52 19.94,32.92 18.75,33.31 17.07,33.46 15.40,33.61 14.80,33.69 14.21,33.76 13.79,33.78 13.38,33.80 12.97,33.73 12.55,33.65 12.17,33.48 11.79,33.30 11.46,33.04 11.14,32.79 10.88,32.46 10.62,32.12 10.45,31.74 10.28,31.36 10.21,30.95 10.14,30.54 10.16,30.12 10.19,29.70 10.32,29.30 10.44,28.90 10.66,28.55 10.88,28.19 11.17,27.90 11.47,27.60 11.83,27.39 12.19,27.17 12.59,27.05 12.99,26.93 11.97,27.49 10.94,28.05 11.99,27.08 13.03,26.12 14.69,24.82 16.36,23.53 16.84,23.26 17.33,23.00 17.87,22.90 18.42,22.80 18.96,22.88 19.51,22.96 20.00,23.21 20.50,23.46 20.88,23.86 21.27,24.25 21.51,24.75 21.75,25.25 21.82,25.80 21.89,26.35 21.78,26.89 21.67,27.44 21.39,27.92 21.12,28.39 20.70,28.76 20.28,29.13 19.77,29.34 19.26,29.55 18.71,29.59 18.16,29.63 17.62,29.49 17.08,29.35 16.62,29.05 16.16,28.74 15.82,28.31 15.47,27.87 15.29,27.35 15.10,26.83 15.09,26.28 15.08,25.72 15.25,25.19 15.42,24.67 15.75,24.22 16.08,23.77 16.53,23.46 16.98,23.14 17.51,22.98 18.05,22.83 18.60,22.85 19.15,22.87 19.67,23.06 20.19,23.26 20.62,23.61 21.04,23.96 21.34,24.43 21.63,24.90 21.76,25.44 21.89,25.98 21.83,26.53 21.78,27.08 21.56,27.59 21.33,28.10 20.96,28.50 20.59,28.91 20.59,28.91 20.59,28.91 18.69,30.34 16.79,31.77 15.50,32.76 14.21,33.76 13.79,33.78 13.38,33.80 12.97,33.73 12.55,33.65 12.17,33.48 11.79,33.30 11.46,33.05 11.14,32.79 10.88,32.46 10.62,32.13 10.45,31.74 10.28,31.36 10.21,30.95 10.14,30.54 10.16,30.12 10.19,29.70 10.32,29.30 10.44,28.90 10.66,28.55 10.88,28.19 11.17,27.90 11.47,27.60 11.83,27.39 12.19,27.17 12.59,27.05 12.99,26.93 13.21,26.96 13.43,26.99 14.87,26.83 16.32,26.67 17.40,26.27 18.49,25.87 18.86,24.81 19.24,23.75 19.21,22.62 19.19,21.48 18.67,20.53 18.15,19.58 17.27,18.16 16.40,16.74 15.04,16.73 13.68,16.72 12.33,16.71 10.99,16.69 9.66,16.67 8.34,16.65 6.90,16.61 5.47,16.57 3.88,16.39 2.29,16.20 1.25,15.63 0.20,15.05 -0.43,13.89 -1.06,12.72 -1.11,10.98 -1.16,9.23 -1.17,7.71 -1.17,6.19 -1.31,4.61 -1.45,3.03 -1.90,2.15 -2.35,1.27 -2.46,0.97 -2.58,0.67 -2.63,0.35 -2.67,0.03 -2.63,-0.28 -2.60,-0.60 -2.49,-0.90 -2.38,-1.21 -2.20,-1.47 -2.02,-1.74 -1.78,-1.96 -1.54,-2.18 -1.26,-2.33 -0.98,-2.48 -0.66,-2.56 -0.35,-2.65 -0.03,-2.65 0.28,-2.65 0.60,-2.58 0.91,-2.51 1.20,-2.36 1.49,-2.22 1.73,-2.01 1.97,-1.79 2.16,-1.53 2.35,-1.27 2.35,-1.27 L 2.35,-1.27 Z"></path></g><g stroke-linecap="round"><g transform="translate(591.3512903463993 119.7676876705208) rotate(0 -98.24437579041646 -53.51816853634183)"><path d="M0.14 2.26 C-32.91 -15.9, -162.45 -90.99, -195.73 -109.3 M-3.23 1.02 C-36.66 -16.66, -163.48 -87, -196.63 -105.9" stroke="#1e1e1e" stroke-width="4" fill="none"></path></g></g><mask></mask><g stroke-linecap="round"><g transform="translate(503.8133618575355 124.95691936472384) rotate(0 -55.7228022553208 -57.69471971173747)"><path d="M2.47 -0.43 C-16.54 -19.25, -94.96 -91.86, -113.92 -110.64 M0.37 -3.14 C-17.71 -23, -89.47 -97.03, -108.26 -114.96" stroke="#1e1e1e" stroke-width="4" fill="none"></path></g></g><mask></mask><g stroke-linecap="round"><g transform="translate(393.2198533989602 16.32333127460693) rotate(0 11.471917498337547 55.149958189224286)"><path d="M-1.38 1.28 C2.27 19.33, 19.82 90.21, 24.32 107.83 M3.07 -0.49 C6.23 17.97, 19.08 92.54, 22.77 110.79" stroke="#1e1e1e" stroke-width="4" fill="none"></path></g></g><mask></mask><g stroke-linecap="round"><g transform="translate(390.00096992986295 21.352432386153694) rotate(0 -30.903268631255344 51.951870918004666)"><path d="M1.27 -1.23 C-8.87 15.66, -50.79 84.68, -62.25 102.62 M-1.48 4.28 C-11.64 21.35, -52.98 88.87, -63.08 105.13" stroke="#1e1e1e" stroke-width="4" fill="none"></path></g></g><mask></mask><g stroke-linecap="round"><g transform="translate(392.7226274972292 15.232441680261402) rotate(0 -115.38747900541776 51.04457021293581)"><path d="M2.6 -2.06 C-36.51 15.51, -194.56 87.02, -233.37 104.15 M0.56 3 C-37.83 19.87, -189.67 83.44, -228.4 100.09" stroke="#1e1e1e" stroke-width="4" fill="none"></path></g></g><mask></mask><g stroke-linecap="round"><g transform="translate(392.4452277836325 16.463445534431074) rotate(0 -97.78695121558991 53.853198392786574)"><path d="M-2.63 1.76 C-35.52 19.56, -163.1 87.41, -194.73 104.75 M1.13 0.24 C-32.32 18.56, -164.4 89.41, -196.71 107.46" stroke="#1e1e1e" stroke-width="4" fill="none"></path></g></g><mask></mask><g stroke-linecap="round"><g transform="translate(384.557654795129 39.08689441532927) rotate(0 10.308095320758042 11.584193351962455)"><path d="M0.47 -1.68 C4.8 1.62, 20 17.51, 23.34 21.56 M-2.72 3.57 C1.73 7.14, 19.06 21.12, 22.61 24.85" stroke="#1e1e1e" stroke-width="4" fill="none"></path></g></g><mask></mask><g stroke-linecap="round"><g transform="translate(373.73383200798634 49.75059040409151) rotate(0 15.915648427553407 16.681149275932228)"><path d="M2.79 -0.63 C7.87 5.14, 26.53 27.01, 30.98 32.93 M0.86 -3.43 C5.52 3.01, 24.36 31.1, 28.69 36.8" stroke="#1e1e1e" stroke-width="4" fill="none"></path></g></g><mask></mask><g stroke-linecap="round"><g transform="translate(360.30349870440324 66.32910978971758) rotate(0 25.096039250007777 24.044825829157915)"><path d="M-0.09 0.43 C7.48 8.85, 39.95 42.08, 48.24 49.9 M-3.59 -1.81 C4.66 5.93, 45.23 37.51, 53.78 46.2" stroke="#1e1e1e" stroke-width="4" fill="none"></path></g></g><mask></mask><g stroke-linecap="round"><g transform="translate(347.5902174906846 82.98769446667173) rotate(0 33.069208049016794 22.318781459671612)"><path d="M-1.58 2.42 C9.72 8.99, 55.94 33.15, 67.72 39.82 M2.76 1.27 C13.68 8.27, 54.52 37.21, 65.38 43.37" stroke="#1e1e1e" stroke-width="4" fill="none"></path></g></g><mask></mask></svg>